<svg xmlns="http://www.w3.org/2000/svg" viewBox="0 0 100.43 42.38"><defs><style>.cls-1{fill:#34c4f3;}</style></defs><g id="Layer_2" data-name="Layer 2"><g id="Layer_1-2" data-name="Layer 1"><path class="cls-1" d="M32.61,6.79Q19.73,12.91,6.4,18c-2.11.81-5,1.35-6,3.58S.74,26,2.63,27.19s4.22,1.67,6.27,2.34c2.28.76,4.58,1.48,6.88,2.16q7.83,2.34,15.8,4.15c3.13.72,4.47-4.1,1.33-4.82A249.21,249.21,0,0,1,8.63,24.18a31.15,31.15,0,0,1-3-1c-.12-.05-.58-.41-.68-.38a2.59,2.59,0,0,0-.18,1c.08.4-.31.16.21.11a2.9,2.9,0,0,0,.67-.26l1.36-.51L10.2,21.9c4-1.54,7.86-3.16,11.76-4.83q6.65-2.85,13.18-6A2.52,2.52,0,0,0,36,7.69a2.57,2.57,0,0,0-3.43-.9Z"/><path class="cls-1" d="M57.92,1.21,36.18,38.65c-1.62,2.79,2.7,5.31,4.32,2.52L62.24,3.73c1.62-2.78-2.7-5.3-4.32-2.52Z"/><path class="cls-1" d="M65.29,11.11q11.5,5.46,23.36,10.17,2.92,1.16,5.85,2.27a12.6,12.6,0,0,0,1.22.47s-.41-1.33-.24-1.29c-.08,0-.58.36-.68.41a14.79,14.79,0,0,1-1.41.5q-5.91,2-11.91,3.77-6.93,2-14,3.61c-3.13.72-1.81,5.54,1.33,4.82a202.17,202.17,0,0,0,27.39-7.92c2-.75,4.15-2.26,4.19-4.61,0-2.78-2.4-3.75-4.6-4.58q-6.57-2.49-13.06-5.22-7.55-3.19-15-6.72a2.57,2.57,0,0,0-3.42.9,2.53,2.53,0,0,0,.9,3.42Z"/></g></g></svg>