<svg xmlns="http://www.w3.org/2000/svg" viewBox="0 0 100.59 41.15"><defs><style>.cls-1{fill:#34c4f3;}</style></defs><g id="Layer_2" data-name="Layer 2"><g id="Layer_1-2" data-name="Layer 1"><path class="cls-1" d="M32.31,4.17Q19.35,10.32,6,15.48c-1.9.73-4.66,1.23-5.64,3.22s.41,3.79,2,4.79c1.8,1.12,4.12,1.62,6.12,2.28,2.28.76,4.58,1.48,6.88,2.16q7.83,2.34,15.8,4.15c2.35.54,3.35-3.07,1-3.61-8.19-1.88-16.3-4.16-24.27-6.85-1-.33-2-.61-2.95-1-.29-.13-.55-.31-.83-.45-.05,0-.2-.21-.25-.21s-.23.27-.08.32c.47.15,2-.71,2.53-.91,1.06-.4,2.1-.81,3.15-1.22,3.9-1.52,7.76-3.12,11.6-4.77q6.66-2.85,13.19-6c2.18-1,.28-4.27-1.9-3.24Z"/><path class="cls-1" d="M57.23.91,35.49,38.35c-1.22,2.09,2,4,3.23,1.89L60.46,2.8c1.22-2.09-2-4-3.23-1.89Z"/><path class="cls-1" d="M64.9,12.43q16.69,1.46,33.3,3.84l-1.12-2.76c-1.47,2-4,3.17-6,4.41-2.45,1.47-4.93,2.88-7.46,4.22a148.32,148.32,0,0,1-15.33,7A1.93,1.93,0,0,0,67,31.48a1.88,1.88,0,0,0,2.3,1.31,158.17,158.17,0,0,0,16.64-7.63q4-2.13,7.84-4.49c2.43-1.49,4.82-3,6.56-5.26a1.89,1.89,0,0,0-1.12-2.76q-17.1-2.46-34.3-4c-2.41-.21-2.39,3.54,0,3.75Z"/></g></g></svg>