<svg xmlns="http://www.w3.org/2000/svg" viewBox="0 0 59.33 69.88"><defs><style>.cls-1{fill:#34c4f3;}</style></defs><g id="Layer_2" data-name="Layer 2"><g id="Layer_1-2" data-name="Layer 1"><path class="cls-1" d="M2.38,3.75q27.2.3,54.38,1.49c2.41.1,2.41-3.65,0-3.75Q29.58.3,2.38,0C0,0,0,3.72,2.38,3.75Z"/><path class="cls-1" d="M0,2,1.67,49c.09,2.4,3.84,2.42,3.75,0L3.75,2C3.67-.41-.08-.42,0,2Z"/><path class="cls-1" d="M55,3.55a418.82,418.82,0,0,1,0,45.79c-.13,2.41,3.62,2.41,3.75,0a418.82,418.82,0,0,0,0-45.79c-.13-2.4-3.88-2.41-3.75,0Z"/><path class="cls-1" d="M3.16,50.92a51.39,51.39,0,0,0,11.77,9.66c4.11,2.5,8.42,4.75,11.88,8.15,1.73,1.69,4.38-1,2.65-2.65-3.49-3.44-7.78-5.82-11.95-8.32a49.16,49.16,0,0,1-11.7-9.5c-1.61-1.8-4.25.86-2.65,2.66Z"/><path class="cls-1" d="M29.69,69.62q7.73-4.41,15.21-9.2a77.18,77.18,0,0,0,13-9.94c1.71-1.7-.94-4.35-2.65-2.65a74.13,74.13,0,0,1-12.63,9.59q-7.3,4.66-14.84,9c-2.09,1.2-.21,4.44,1.89,3.24Z"/><path class="cls-1" d="M18.5,15.86c4.33,0,8.67.08,13,.2l6.32.21,3.27.13a18.72,18.72,0,0,1,3.27.16l-1.12-.86.17.22L43.16,15a14.93,14.93,0,0,1-.63,3.36c-.19,1.09-.34,2.2-.48,3.3-.3,2.36-.49,4.72-.66,7.09s-.33,4.75-.56,7.11c-.12,1.25-.25,2.5-.44,3.74a11.26,11.26,0,0,1-.59,3.18c-.34.68-1.47.82-2.14,1.07L34.31,45A15.68,15.68,0,0,1,31,46.19c-.92.1-1.76-.58-2.57-1A31.31,31.31,0,0,0,22.18,43c-.5-.12-1-.22-1.5-.31l-.75-.14c.39.71.54.74.45.07a7.29,7.29,0,0,0,.05-1.87l0-1.88c.06-2.41-3.69-2.41-3.75,0,0,1.53-.21,3.12-.09,4.64a3.05,3.05,0,0,0,2.84,2.76,30.73,30.73,0,0,1,8.34,2.86,5.75,5.75,0,0,0,3.92.73,35.55,35.55,0,0,0,4.69-1.61c2.53-.91,6-1.44,6.94-4.32a22.88,22.88,0,0,0,.78-4.28c.23-1.66.41-3.32.55-5,.28-3.24.45-6.48.75-9.72s.94-6.09,1.43-9.16c.62-3.86-4.8-3.1-7.19-3.19q-10.59-.43-21.18-.48c-2.42,0-2.42,3.74,0,3.75Z"/><path class="cls-1" d="M19.31,31a114.38,114.38,0,0,1,23.47.48,1.87,1.87,0,0,0,1.87-1.87,1.92,1.92,0,0,0-1.87-1.88,114.38,114.38,0,0,0-23.47-.48c-2.39.19-2.41,3.95,0,3.75Z"/></g></g></svg>