<svg xmlns="http://www.w3.org/2000/svg" viewBox="0 0 112.67 88.12"><defs><style>.cls-1{fill:#34c4f3;}</style></defs><g id="Layer_2" data-name="Layer 2"><g id="Layer_1-2" data-name="Layer 1"><path class="cls-1" d="M2.36,86.47a33.28,33.28,0,0,1,8.16.34q4.14.48,8.29.77c5.54.39,11.1.54,16.65.54,11,0,22.1-.59,33.13-1.09l19-.87c2.4-.1,2.42-3.86,0-3.75-11.31.52-22.62,1.08-33.93,1.53a325.23,325.23,0,0,1-33.34,0c-3.1-.2-6.19-.46-9.28-.81a38.34,38.34,0,0,0-9.63-.26,1.88,1.88,0,0,0-1.31,2.3,1.91,1.91,0,0,0,2.3,1.31Z"/><path class="cls-1" d="M97.34,85q6.73-.14,13.46.34a1.88,1.88,0,0,0,0-3.75q-6.72-.48-13.46-.34a1.88,1.88,0,1,0,0,3.75Z"/><path class="cls-1" d="M36.74,81.38c-1.66.52-.93-2.18-.9-3a35.77,35.77,0,0,0-.65-6.69c-.28-1.69-.72-3.46-2.32-4.38-.23-.13-.84-.51-1.07-.44-.31-.17-.25,0,.2.37,0-.23-.06-.46-.1-.68a3.2,3.2,0,0,0-1.43-2.06,4.93,4.93,0,0,0-2.16-.67c-.6-.06-1.65.24-2.2,0-.22-.11.06.31-.12-.27-.09-.3-.12-.62-.22-.92a3.44,3.44,0,0,0-1.68-2c-.39-.2-1.89-.28-2.12-.55.23.28,0-.58-.06-.67A5.7,5.7,0,0,0,21.23,58a5.42,5.42,0,0,0-4.65-2.28l1.87,1.87a4.59,4.59,0,0,0-5.86-4.49L15,55q-.13-9.48-.13-19v-2.5a5.57,5.57,0,0,0,0-1v-.41l-.39.42a2.08,2.08,0,0,1,.19.29,15.75,15.75,0,0,1,.22,1.68c.09,2.16-.26,5.28,2.07,6.43a3,3,0,0,0,2,.2,2.73,2.73,0,0,0,.75-.29c.77-.61-.71-.11-.53-.36-.19.28.63,1.76.86,2.09a3.11,3.11,0,0,0,1.48,1.17c.37.14,1.21.43,1.58.25h.25c-.33-.48-.44-.58-.34-.28,0,.09.09.35.1.45a13.71,13.71,0,0,0,.27,1.58c.82,2.63,3.56,2.54,5.8,2.14,2.05-.36,4.57-1.79,4.63-4.17,0-.22.15-.51-.09-.27.09-.08.36-.07.5-.08a5.76,5.76,0,0,0,2.13-.53c1.21-.64,1.44-1.79,2.32-2.68S41.1,38.78,42,37.53a3.8,3.8,0,0,0,.67-1.84,4.73,4.73,0,0,0,0-.92c0-.19-.06-.39-.1-.59,0-.42-.18-.24-.38.54l-.94.25c1.58-.15,2.93-.17,3.87-1.7a3.71,3.71,0,0,0,0-4.08l-.68,2.56c.68-.51,1.79-.22,2.61-.35a4.19,4.19,0,0,0,2.41-1.19c1.33-1.32,1.63-3.27,1.79-5.06.22-2.4-3.54-2.38-3.75,0-.07.78-.13,2.27-1,2.58a8.68,8.68,0,0,1-1.77,0,4.13,4.13,0,0,0-2.18.74,1.9,1.9,0,0,0-.67,2.57c.51.69-.11-.13.14,0,.09,0-.17.23-.13.27-.19-.19,1-.11,0-.17a4.52,4.52,0,0,0-.64,0,2.7,2.7,0,0,0-2.43,3.12c.05.44.27.81.05,1.18s-1,.69-1.45.95a6.59,6.59,0,0,0-1.57,1.26c-.41.46-.68,1.38-1.15,1.74a4.63,4.63,0,0,1-1.2.19,4.41,4.41,0,0,0-1.58.49,3.27,3.27,0,0,0-1.27,1.36c-.29.55-.22,1.52-.58,2s-1.58.7-2.29.77a4.68,4.68,0,0,0-.64,0c-.66.26-.17-.32-.05.38-.09-.54-.17-1.1-.28-1.64a3.33,3.33,0,0,0-2-2.59,5.41,5.41,0,0,0-2-.27c.4,0,.3.55.29,0a2.7,2.7,0,0,0-.22-.66,3.7,3.7,0,0,0-1.7-2.29,2.92,2.92,0,0,0-2-.23,4.82,4.82,0,0,0-1,.4.73.73,0,0,1,.71.27c.09.12.07,0-.06-.26a6.66,6.66,0,0,0-.09-1.71c0-.67,0-1.35-.07-2a5.89,5.89,0,0,0-1.5-3.91c-2-1.93-5.59-1.06-5.93,1.85a47,47,0,0,0-.07,5.57c0,1.91,0,3.82,0,5.74q0,6,.12,12a1.89,1.89,0,0,0,2.37,1.81.81.81,0,0,1,1.11.87,1.9,1.9,0,0,0,1.88,1.88c2-.08,1.69,1.86,2.66,3a3.68,3.68,0,0,0,2.17,1.22c.22,0,1.16.38.8,0,.13.15.12.57.17.75a3.86,3.86,0,0,0,3.73,3,8.92,8.92,0,0,0,2,0,1.07,1.07,0,0,1,.36.1c-.18-.35-.24-.41-.2-.17a2.72,2.72,0,0,0,.37,1.44c.55,1,1.37,1,2.17,1.55.47.35.51.79.63,1.41a30.16,30.16,0,0,1,.65,6.49c-.06,1.92-.47,3.88,1,5.43A4.52,4.52,0,0,0,37.73,85c2.29-.73,1.32-4.35-1-3.61Z"/><path class="cls-1" d="M51.09,23.62,49.86,5.33A1.91,1.91,0,0,0,48,3.46a1.89,1.89,0,0,0-1.88,1.87l1.23,18.29a1.92,1.92,0,0,0,1.87,1.88,1.89,1.89,0,0,0,1.88-1.88Z"/><path class="cls-1" d="M46.69,6.25l1.58,1.31c.21.18.43.36.67.53a2.91,2.91,0,0,0,.75.37,2.45,2.45,0,0,0,1.26,0A2.24,2.24,0,0,0,52,8a3.34,3.34,0,0,0,.7-1,6,6,0,0,0,.46-1.29c.14-.73.13-1.46.22-2.19l-.07.5a3.61,3.61,0,0,1,.2-.8l-.18.45a.5.5,0,0,1,.05-.13,2,2,0,0,0,.19-1.44A1.91,1.91,0,0,0,52.71.92,1.86,1.86,0,0,0,51.27.74a1.8,1.8,0,0,0-1.12.86,4.68,4.68,0,0,0-.38,1,6.83,6.83,0,0,0-.16,1.09c0,.43,0,.87-.1,1.3l.07-.49a4.24,4.24,0,0,1-.25.91l.19-.45a3.38,3.38,0,0,1-.34.62l.29-.38-.12.13L49.72,5a.33.33,0,0,1-.1.06l.45-.19-.12,0,.5-.06h-.12l.5.07-.17-.06L51.1,5a2,2,0,0,1-.27-.17l.38.29c-.64-.49-1.25-1-1.87-1.55A2,2,0,0,0,48,3.05a1.89,1.89,0,0,0-1.32.54,1.88,1.88,0,0,0,0,2.66Z"/><path class="cls-1" d="M53.21,4.47C60.09,4,67,3.75,73.88,3.75c1.64,0,3.28,0,4.92,0l2.69.07,1.22,0c.6,0,1.21.32.61-.38-.76-.87-.24,0-.11.34A6.3,6.3,0,0,0,83.78,5a4.87,4.87,0,0,0,1.47,1.46c1.36.81,2.42.49,3.85.29l-1.44-.19.18.09L87,5.52a26.07,26.07,0,0,1,.78,4.32,19,19,0,0,1,0,4.52A36.82,36.82,0,0,0,88.49,24c.41,2.37,4,1.36,3.61-1a32.32,32.32,0,0,1-.66-7.53,30.88,30.88,0,0,0-.14-7.06c-.31-1.85-.3-5.9-3.2-5.3-.78.16-1,.25-1.41-.63-.46-1.09-.72-2-2-2.22A22.94,22.94,0,0,0,80.77.1C79.46.06,78.15,0,76.84,0Q72.89,0,69,0C63.7.13,58.45.37,53.21.72c-2.4.16-2.41,3.91,0,3.75Z"/><path class="cls-1" d="M90,22l-11.91.21c-3.1.05-7.68-.45-9,3.21a3.57,3.57,0,0,0,1.06,4c1.25,1.05,3,1.2,4.58,1.27a33.07,33.07,0,0,0,5.53-.35c.11,0,2.24-.14,2.29-.21.24,0,.16-.08-.26-.41a.81.81,0,0,1-.18.19,6,6,0,0,0-1,.65l2.76,2.11c.07-.38.07-.42,0-.11l-.95.26-.6-.39L82,31.45l0,.3.25-.94c.53-.21.63-.3.31-.27a3,3,0,0,1-.52,0c-.45-.13,0-.06-.48-.36a3.75,3.75,0,0,0-2.16-.74c-1.86-.06-3.78.15-5.63.23a16.88,16.88,0,0,0-5,.67,2.92,2.92,0,0,0-2.07,2.39c0,.22-.24.7,0,.44L70,34.49a4.67,4.67,0,0,0-.69-2.62l-1.62,2.82.67-.09L67,31.4A7.3,7.3,0,0,0,65.17,37c.14,1.93.42,5,2.52,5.79,1.91.73,3.75-.46,5.65-.29.75.07,1,.31,1.2,1.05.1.52.26,1.56-.11,2a1.29,1.29,0,0,1-.42.27c.29.08-.25-.51-.23-.48a5,5,0,0,0-2.09-1.7c-1.64-.74-3.68-1.13-4.74.7s-.57,3.78-.4,5.69c.18,2.13-.82,4.08-.75,6.2.08,2.41,3.83,2.42,3.75,0-.07-2,.88-3.8.78-5.79,0-1-.27-1.9-.3-2.86,0-.3.1-.78.06-1.06q.41-.89-.9.21l.71.21c.74.29.94.81,1.45,1.38a3.55,3.55,0,0,0,2,1.16,4.23,4.23,0,0,0,4.38-2.21c1.73-3.17.19-7.82-3.54-8.42a8.92,8.92,0,0,0-3,.11c-.5.09-1,.21-1.51.28a4.46,4.46,0,0,1-.63,0c-.3,0-.19.08.35.28-.06,0-.56-3-.56-3.29a3.3,3.3,0,0,1,.76-2.2c1-1,.42-3.43-1.32-3.2l-.67.09A1.9,1.9,0,0,0,66,33.76a1,1,0,0,1,.18.73,1.9,1.9,0,0,0,3.21,1.32c.14-.14,1.42-2.26,1-2.37-.44.38-.48.51-.1.36a5.73,5.73,0,0,1,.69-.16,14.66,14.66,0,0,1,1.86-.19c1.15-.06,2.29-.1,3.43-.14A21.59,21.59,0,0,1,80,33.23L79,33c.6.27,1,.84,1.66,1.07a5.8,5.8,0,0,0,2.07.25,2.93,2.93,0,0,0,3-2.29,2.68,2.68,0,0,0-2.55-3,3.05,3.05,0,0,0-3,2.63A1.9,1.9,0,0,0,83,33.76a5.27,5.27,0,0,0,3-3.26,3.28,3.28,0,0,0-2-3.9c-1.48-.55-3.12-.1-4.62.07a22.77,22.77,0,0,1-5.53.17c-.23,0-1.13-.1-1.2-.27.08.18.05,0,.15-.11a1.47,1.47,0,0,1,.48-.29,6.68,6.68,0,0,1,2.4-.22l3-.05L90,25.7c2.41-.05,2.42-3.8,0-3.75Z"/><path class="cls-1" d="M66.92,55.36c-1.47-.1-3.42-.55-4.36.92a2.62,2.62,0,0,0-.26,2.18,3.11,3.11,0,0,1,.29,1.66l.48-.82-.1.12.83-.48c-1.13.2-2.31-.27-3.45.16a2.64,2.64,0,0,0-1.63,2.78,3.43,3.43,0,0,0,.19.91c.35,1.09.38-.37.49-.28s-1.06.11-1.07.11a3.81,3.81,0,0,0-3,1.68c-1.16,1.85-.71,4.51-.54,6.56a60.39,60.39,0,0,0,1.14,7.82c.5,2.36,4.11,1.37,3.62-1a42.43,42.43,0,0,1-1.16-11c0-.12.19-.45,0-.29s.46,0,.61,0a5.16,5.16,0,0,0,2.28-.57,3.09,3.09,0,0,0,1.45-1.87,3.46,3.46,0,0,0-.06-1.63c0-.13-.21-.61-.2-.63l-.48.83c-.5.18-.49.25,0,.19h.41c.4,0,.81,0,1.22,0a2.45,2.45,0,0,0,2.2-.9,3.49,3.49,0,0,0,.49-2.24,6.5,6.5,0,0,0-.18-1.25,3.91,3.91,0,0,1-.25-.83l-.26,1,.13-.22-.68.68c-.38.1-.41.14-.1.13l.63,0,1.27.09c2.4.16,2.39-3.59,0-3.75Z"/><path class="cls-1" d="M59.43,80.56l.25-.11-.94.26c-.32,0-.1-.66-.21,0a7.62,7.62,0,0,1-.08.86l.48-.83-.17.19.83-.48s.5.08-.11,0a6.23,6.23,0,0,0-.86.07l-1.29.12-1.51.13-.65,0-.35,0c-.4,0-.23.17.49.53.07-.12-.36-.93-.41-1.09A10.28,10.28,0,0,1,54.52,79c-.2-.94-.14-1.91-.27-2.85a5,5,0,0,0-2.5-4c-.4-.19-.29-.23-.18,0a1.23,1.23,0,0,1-.08-.37c0-.35,0-.7-.05-1a4.3,4.3,0,0,0-.95-2.48A4,4,0,0,0,43.39,71a4.45,4.45,0,0,0,.14,1.14c.12.39-.21.63.36.07s.34-.26,0-.42a3.74,3.74,0,0,0-2.36-.11,2.76,2.76,0,0,0-1.78,1.47,2.63,2.63,0,0,0-.24,1.3c0,.44-.07.61.33.2s.09-.27-.33-.27a2.69,2.69,0,0,0-2.61,1.18,4.73,4.73,0,0,0-.29,2.81,6.18,6.18,0,0,0,.77,2.73,2.7,2.7,0,0,0,.94.9,9.08,9.08,0,0,0,1.42.42l-.83-.48c.08.06.05.42.07.34l.48-.83-.12.16.82-.48c.19,0,.17,0-.06,0h-.57l-1.13,0c-2.41,0-2.42,3.79,0,3.75,1.13,0,2.7.23,3.59-.66a3.33,3.33,0,0,0,.62-3.12,3.08,3.08,0,0,0-2.11-2.43l-.5-.07q.73,1,.54.45a5,5,0,0,0-.19-.85,5.86,5.86,0,0,1,0-1.62l-.26,1,.12-.23-.68.67.26-.13-.94.26c1.22-.08,2.38,0,3.41-.78a2.92,2.92,0,0,0,1-1.43,10.19,10.19,0,0,0,0-1.56l-.48.83c-.23.27-.48-.07.1.2a3.54,3.54,0,0,0,1.51.23A2.93,2.93,0,0,0,46.93,74a3.48,3.48,0,0,0,.38-1.51A9,9,0,0,1,47.13,71c0-.27.13-.66.43-.38s.2,1.46.27,1.94A3.63,3.63,0,0,0,49,74.77c.59.53,1.3.69,1.53,1.49a25.26,25.26,0,0,1,.31,3.15c.28,1.74,1,4.49,2.87,5.08a6.84,6.84,0,0,0,2.59,0c1.15-.1,2.3-.17,3.45-.3,2.34-.26,2.91-2.46,2.47-4.52a3.24,3.24,0,0,0-4.63-2.34,1.88,1.88,0,0,0-.67,2.56,1.9,1.9,0,0,0,2.56.67Z"/><path class="cls-1" d="M58.36,9.26H57.15a4.6,4.6,0,0,0-.91.08,2.26,2.26,0,0,0-.63.23,2.22,2.22,0,0,0-.54.43,3.4,3.4,0,0,0-.8,2,3.17,3.17,0,0,0,.28,1.52,3.35,3.35,0,0,0,2.45,2,4,4,0,0,0,.84.07A3.27,3.27,0,0,0,59,15.34a2.72,2.72,0,0,0,.9-.58,3,3,0,0,0,.39-.47l.09-.17a2.8,2.8,0,0,0,.31-1.18,2.83,2.83,0,0,0-.09-.82,3.65,3.65,0,0,0-.29-.71,3.24,3.24,0,0,0-.48-.64,3,3,0,0,0-2.24-.9,3.77,3.77,0,0,0-.88.15,3.93,3.93,0,0,0-2.28,2,3.58,3.58,0,0,0-.4,1.67,3,3,0,0,0,.81,2,2.86,2.86,0,0,0,.48.38l.17.11a2.86,2.86,0,0,0,.8.3,3.45,3.45,0,0,0,.85.07,3.53,3.53,0,0,0,.86-.16,4.31,4.31,0,0,0,1.53-1,9.13,9.13,0,0,0,.87-1.08,4.09,4.09,0,0,0,.41-.84,1.72,1.72,0,0,0,.07-.21,2.94,2.94,0,0,0,.08-.72,2.52,2.52,0,0,0-1.23-2.1,2.71,2.71,0,0,0-2-.28,2.61,2.61,0,0,0-1.63,1.26,2.8,2.8,0,0,0-.3.76,3.23,3.23,0,0,0,0,1.35,3.29,3.29,0,0,0,.3.79l.1.17a3.6,3.6,0,0,0,.43.52,2.9,2.9,0,0,0,2,.84,2.86,2.86,0,0,0,1.91-.75,2.08,2.08,0,0,0,.27-.32,2.13,2.13,0,0,0,.25-.34,2.65,2.65,0,0,0,.32-1.26,2.73,2.73,0,0,0-.07-.64,1.21,1.21,0,0,0,0-.18,2.82,2.82,0,0,0-.53-1A3.34,3.34,0,0,0,59,10.28,5.58,5.58,0,0,0,57.55,10a2.26,2.26,0,0,0-.45,0,2.65,2.65,0,0,0-1.63.65,3.17,3.17,0,0,0-.84,1.49,4.1,4.1,0,0,0-.11.61,2.64,2.64,0,0,0,0,.63,3,3,0,0,0,.75,1.88,1.87,1.87,0,0,0,.3.26,3.19,3.19,0,0,0,.32.23,2.7,2.7,0,0,0,2.8-.13,3,3,0,0,0,1.1-1.2,3.63,3.63,0,0,0,.34-1.3,2.44,2.44,0,0,0,0-.54,8.41,8.41,0,0,0-.32-1.49A2,2,0,0,0,58.9,10a2,2,0,0,0-1.44-.19,1.91,1.91,0,0,0-1.12.87,1.86,1.86,0,0,0-.19,1.44,6.15,6.15,0,0,1,.25,1l-.07-.5a2.41,2.41,0,0,1,0,.6l.06-.5a1.16,1.16,0,0,1-.08.32l.19-.45a1.17,1.17,0,0,1-.15.27l.29-.38a1.18,1.18,0,0,1-.25.25l.38-.29a1.17,1.17,0,0,1-.27.15l.45-.19a1.05,1.05,0,0,1-.24.06l.5-.06H57l.5.07-.16,0,.45.19a1.08,1.08,0,0,1-.18-.11l.38.29a1,1,0,0,1-.15-.14l.3.38a1.62,1.62,0,0,1-.1-.18l.19.45a1,1,0,0,1-.07-.29l.06.5a2.14,2.14,0,0,1,0-.44l-.07.49a2.74,2.74,0,0,1,.19-.66l-.19.45a1.28,1.28,0,0,1,.15-.25l-.3.38.11-.1-.38.29.08-.05-.44.18.21,0-.5.07a3.55,3.55,0,0,1,.86.05l-.5-.07a3.25,3.25,0,0,1,.68.18l-.45-.19a1.5,1.5,0,0,1,.32.19l-.38-.3.21.21-.29-.38a1.49,1.49,0,0,1,.18.3l-.19-.45a.86.86,0,0,1,.06.23l-.07-.5a.89.89,0,0,1,0,.23l.06-.5a1.29,1.29,0,0,1,0,.19l.19-.45a.76.76,0,0,1-.12.19l.3-.38a.8.8,0,0,1-.13.13l.38-.3a.76.76,0,0,1-.19.12l.45-.19a.83.83,0,0,1-.27.07l.5-.06h-.22l.5.07-.24-.07.45.19a1.28,1.28,0,0,1-.25-.15l.38.3a1.45,1.45,0,0,1-.17-.18l.29.38a1.22,1.22,0,0,1-.17-.29l.19.44a.9.9,0,0,1-.07-.27l.06.49a2.72,2.72,0,0,1,0-.28l-.07.5a1.2,1.2,0,0,1,.08-.27l-.19.45a.67.67,0,0,1,.12-.2l-.3.37a.87.87,0,0,1,.17-.16l-.38.3a.67.67,0,0,1,.14-.09l-.44.19.19-.05-.49.07h.2l-.5-.06.2.05-.45-.19a1,1,0,0,1,.17.1l-.38-.29a.63.63,0,0,1,.11.12l-.29-.38.06.1-.19-.45a.83.83,0,0,1,0,.15l-.06-.5v.22l.06-.5a.9.9,0,0,1-.08.28l.19-.45a3.2,3.2,0,0,1-.4.63l.29-.38a3.7,3.7,0,0,1-.64.67l.38-.29a1.69,1.69,0,0,1-.41.24l.45-.18a2.42,2.42,0,0,1-.36.1l.5-.07a1.61,1.61,0,0,1-.38,0l.5.06a1.09,1.09,0,0,1-.31-.08l.45.19a1.12,1.12,0,0,1-.24-.13l.38.29a.87.87,0,0,1-.16-.17l.29.38a1.28,1.28,0,0,1-.11-.2l.19.44a1.38,1.38,0,0,1-.08-.27l.07.5a1.93,1.93,0,0,1,0-.34l-.06.49a2.14,2.14,0,0,1,.13-.48l-.19.45a2,2,0,0,1,.26-.44l-.3.38a2.52,2.52,0,0,1,.4-.4l-.38.29a2.38,2.38,0,0,1,.44-.25l-.45.19a1.66,1.66,0,0,1,.38-.11l-.5.07a2,2,0,0,1,.35,0l-.5-.07.25.07-.45-.19a1,1,0,0,1,.24.14L57,13.29a1,1,0,0,1,.23.23l-.3-.38a1.07,1.07,0,0,1,.16.27L56.89,13a1.11,1.11,0,0,1,.07.26l-.06-.5a.82.82,0,0,1,0,.27l.07-.5a1.21,1.21,0,0,1-.05.18l.19-.45a.83.83,0,0,1-.09.16L57.3,12a.69.69,0,0,1-.17.17l.38-.3-.22.13.45-.19a2.25,2.25,0,0,1-.35.09l.5-.07a1.27,1.27,0,0,1-.39,0l.49.07a1.62,1.62,0,0,1-.43-.12L58,12a1.68,1.68,0,0,1-.34-.2l.38.29a1.48,1.48,0,0,1-.28-.28l.29.38a1.57,1.57,0,0,1-.18-.31l.19.45a2.2,2.2,0,0,1-.12-.44l.07.5A2.81,2.81,0,0,1,58,12l-.06.5a1.59,1.59,0,0,1,.1-.39l-.19.44.13-.23-.29.38.11-.11-.38.29.09-.05-.45.19.15,0-.5.07a6.94,6.94,0,0,1,.79,0h.84a1.88,1.88,0,0,0,1.88-1.88,1.88,1.88,0,0,0-.55-1.32,2,2,0,0,0-1.33-.55Z"/><path class="cls-1" d="M80.84,32.56l1.21,0a1.9,1.9,0,0,0,1.88-1.87,1.92,1.92,0,0,0-1.88-1.88,48.16,48.16,0,0,0-8.81-.52c-2.91.27-5.08,1.9-7.22,3.76l2.66,2.65a5.06,5.06,0,0,1,4-1.44c1.87.1,3.75.65,5.61.9,1,.15,2,.27,3.07.38a7.41,7.41,0,0,0,2.93,0c2.22-.74,1.93-3.42,2-5.3a1.89,1.89,0,0,0-1.87-1.88,1.91,1.91,0,0,0-1.88,1.88l-.09,1.5a4,4,0,0,0,0,.6c0,.53-.11.23.12,0l.83-.49a6.22,6.22,0,0,1-2.21-.12q-1-.11-2.07-.24c-1.53-.22-3-.54-4.57-.79-3.16-.52-6.15,0-8.52,2.31a1.88,1.88,0,1,0,2.66,2.65c1.64-1.44,3.23-2.68,5.5-2.7a73.79,73.79,0,0,1,7.87.56V28.85l-1.21,0c-2.42-.09-2.42,3.66,0,3.75Z"/><path class="cls-1" d="M72.25,30.18A5.58,5.58,0,0,0,67.52,33a8.63,8.63,0,0,0-.72,5.91,1.83,1.83,0,0,0,.86,1.12,1.89,1.89,0,0,0,1.45.19,1.93,1.93,0,0,0,1.31-2.3c0-.15,0-.3-.07-.44l.06.5a8.28,8.28,0,0,1,0-2.11l-.07.49a5.78,5.78,0,0,1,.14-.7,2.59,2.59,0,0,1,.11-.37c0-.13.21-.43,0,0,.09-.17.16-.35.27-.52L71,34.6c.19-.29-.31.36,0,0,.14-.15.29-.29.44-.43s-.37.25-.08.07l.24-.15.24-.13c.31-.16-.41.14-.11,0a4.44,4.44,0,0,1,.63-.15l-.5.06.46,0a1.88,1.88,0,1,0,0-3.75Z"/><path class="cls-1" d="M71.18,28.91a8.14,8.14,0,0,0-4.2,2,6.59,6.59,0,0,0-1.39,1.76,6.73,6.73,0,0,0-.75,2.59l.07.5a1.45,1.45,0,0,0,.33.64,1.79,1.79,0,0,0,1,.67,2.41,2.41,0,0,0,1,0,2,2,0,0,0,1.12-.86c.13-.19.26-.37.4-.55l-.29.38a15.28,15.28,0,0,1,2.66-2.67l-.38.3A14.59,14.59,0,0,1,72,32.73a1.86,1.86,0,0,0,.68-2.56,1.91,1.91,0,0,0-2.57-.68,17.34,17.34,0,0,0-5,4.79l3.5.95a1,1,0,0,1,0-.16l-.07.5a4.52,4.52,0,0,1,.31-1.13l-.19.45a5.3,5.3,0,0,1,.64-1.08l-.29.38a5.82,5.82,0,0,1,.9-.89l-.38.29a6.49,6.49,0,0,1,1.35-.78l-.45.19a7.68,7.68,0,0,1,1.75-.47,1.88,1.88,0,0,0,1.31-2.31,1.93,1.93,0,0,0-.86-1.12l-.45-.19a1.89,1.89,0,0,0-1,0Z"/><path class="cls-1" d="M58.66,9.39a2.17,2.17,0,0,1-.36,0l.5.07a5.92,5.92,0,0,0-1.5-.18,3.62,3.62,0,0,0-1.71.57,4.9,4.9,0,0,0-1.11.92,3.18,3.18,0,0,0-.85,2.05,4,4,0,0,0,.12,1,4.44,4.44,0,0,0,.15.52,3.94,3.94,0,0,0,.93,1.54,3.67,3.67,0,0,0,3.05,1,3.37,3.37,0,0,0,1.52-.58,3.58,3.58,0,0,0,1.21-1.38l.19-.44a1.47,1.47,0,0,0,0-.75,1.84,1.84,0,0,0-.52-1.08,1.92,1.92,0,0,0-2.27-.29,3.41,3.41,0,0,0-.76.6A2.29,2.29,0,0,0,56.73,15a2.23,2.23,0,0,0,.63,1.09,2.11,2.11,0,0,0,2.28.41,3.1,3.1,0,0,0,1.53-1.93,4.31,4.31,0,0,0,.25-1.51,5,5,0,0,0-.22-1.54,3.78,3.78,0,0,0-1-1.74,4.05,4.05,0,0,0-3.88-.7,4,4,0,0,0-1.82,1.11,2.91,2.91,0,0,0-.69,1.28,5.18,5.18,0,0,0-.1,1.18A2,2,0,0,0,54.24,14a1.88,1.88,0,0,0,2.66,0,1.92,1.92,0,0,0,.55-1.32,3.6,3.6,0,0,1,0-.57l-.06.49a2,2,0,0,1,.09-.33l-.19.44a1.59,1.59,0,0,1,.13-.22l-.29.38a1.72,1.72,0,0,1,.27-.27l-.38.3a2.65,2.65,0,0,1,.52-.29l-.45.19a3.55,3.55,0,0,1,.69-.19l-.5.07a2.89,2.89,0,0,1,.72,0l-.5-.06a2.33,2.33,0,0,1,.52.13l-.44-.19.28.16-.38-.29a1.31,1.31,0,0,1,.24.23l-.3-.38a2,2,0,0,1,.23.43l-.19-.45a3.66,3.66,0,0,1,.24.86l-.07-.5a3.79,3.79,0,0,1,0,.89l.06-.5a2.66,2.66,0,0,1-.18.67l.19-.45a2.43,2.43,0,0,1-.31.54l.29-.38-.07.08.38-.3,0,0,.45-.18-.1,0,.5-.07h0l.49.07,0,0,.45.19,0,0,.38.29a.27.27,0,0,1-.08-.07l.3.38a.47.47,0,0,1-.06-.09l.19.45,0-.1.07.5v-.06l-.07.5a.23.23,0,0,1,0-.11l-.19.45a.21.21,0,0,1,.06-.1l-.3.38a1.45,1.45,0,0,1,.17-.18l-.38.3.21-.14L57.38,13a2.12,2.12,0,0,1-.21.36l.29-.38a1.82,1.82,0,0,1-.34.34L57.5,13a1.69,1.69,0,0,1-.41.24l.45-.19a1.93,1.93,0,0,1-.41.12l.5-.07a2,2,0,0,1-.49,0l.5.07a1.93,1.93,0,0,1-.41-.12l.44.19a2,2,0,0,1-.43-.24l.38.29a1.77,1.77,0,0,1-.3-.31l.29.38a1.74,1.74,0,0,1-.23-.4l.19.45a3.78,3.78,0,0,1-.24-.83l.07.5a1.55,1.55,0,0,1,0-.43l-.07.49a1.38,1.38,0,0,1,.08-.27l-.19.45a1.76,1.76,0,0,1,.14-.23l-.29.38a3.53,3.53,0,0,1,.59-.57l-.38.3a2.89,2.89,0,0,1,.58-.35l-.44.19A1.66,1.66,0,0,1,57.8,13l-.5.07a1.48,1.48,0,0,1,.42,0L57.23,13a6.29,6.29,0,0,0,1.43.18A2.06,2.06,0,0,0,60,12.59a1.87,1.87,0,0,0,0-2.65,1.82,1.82,0,0,0-1.33-.55Z"/><path class="cls-1" d="M83.92,30s0,0,0,0l.07.5a.11.11,0,0,1,0-.08l-.07.5a.19.19,0,0,1,0-.08l-.19.45.05-.09-.29.38.06-.06-.38.29.08,0-.45.19.07,0-.5.06h0a1.36,1.36,0,0,0,.72-.16,1.46,1.46,0,0,0,.61-.39,1.49,1.49,0,0,0,.39-.6,1.53,1.53,0,0,0,.16-.73l-.07-.49a1.87,1.87,0,0,0-.48-.83l-.38-.29a1.86,1.86,0,0,0-1-.26,3.79,3.79,0,0,0-.53.07h-.08a4.69,4.69,0,0,0-.48.2l0,0-.41.32,0,0a4,4,0,0,0-.32.4.43.43,0,0,0,0,.07c-.07.16-.14.31-.2.48,0,0,0,0,0,0a4.51,4.51,0,0,0-.08.53v0a4.23,4.23,0,0,0,.07.53s0,0,0,0a2.14,2.14,0,0,0,.86,1.12,2.17,2.17,0,0,0,1.45.19l.45-.19a2,2,0,0,0,.67-.67l.19-.45a1.89,1.89,0,0,0,0-1Z"/><path class="cls-1" d="M66.27,35.51a13,13,0,0,0,.35,4.93,1.87,1.87,0,0,0,3.61,0,4.51,4.51,0,0,0,0-2.16c-.1-.44-.25-.87-.31-1.33l.07.5a2.35,2.35,0,0,1,0-.53l-.07.5v-.08H66.29l0,.18-.07-.5c0,.39,0,.79,0,1.18a3.29,3.29,0,0,0,.86,2,1.89,1.89,0,0,0,3.13-.83,4.52,4.52,0,0,0,.13-1.32,2,2,0,0,0-.55-1.33,1.91,1.91,0,0,0-1.08-.51,1.8,1.8,0,0,0-1.2.22,1.86,1.86,0,0,0-.86,1.12,2.85,2.85,0,0,0,0,1.45,3.55,3.55,0,0,0,.73,1.2l-.29-.38,0,.06L67,39.46l0,.07L67,39a.28.28,0,0,1,0,.13l.07-.5c0,.05,0,.09,0,.13l.18-.45c-.06.12-.14.23-.2.36l3.5.95a23.66,23.66,0,0,1-.17-3.47H66.59v.08l.07-.5a.54.54,0,0,1,0,.15l.19-.44,0,.06H70a4,4,0,0,1-.23-.46l.19.45a6.27,6.27,0,0,0-.51-1.19,2.3,2.3,0,0,0-2.23-1.1,3.07,3.07,0,0,0-2.35,2.68l3.68.49a3,3,0,0,0-.13-1.12,1.88,1.88,0,0,0-2.06-1.34,1.86,1.86,0,0,0-1.62,1.84A9.51,9.51,0,0,0,65,37.54a1.9,1.9,0,0,0,2.31,1.31,1.92,1.92,0,0,0,1.31-2.31c0-.17-.07-.35-.1-.53l.07.49a5.81,5.81,0,0,1-.05-.72l-3.69.5a1.22,1.22,0,0,1,.06.26L64.8,36a2.16,2.16,0,0,1,0,.36,1.84,1.84,0,0,0,.55,1.33,1.93,1.93,0,0,0,1.08.52,1.86,1.86,0,0,0,2-1.35,5,5,0,0,1,.19-.63l-.18.45a2.19,2.19,0,0,1,.25-.48l-.29.38a.71.71,0,0,1,.15-.15l-.38.29.06,0-.45.19.13,0-.49.07h0l-.5-.07.11,0-.45-.19.09.05-.38-.29.11.12-.29-.38a1.74,1.74,0,0,1,.14.27L66.16,36a11.42,11.42,0,0,0,.6,1.39,1.89,1.89,0,0,0,3.24,0,2.31,2.31,0,0,0,.34-1.25,2,2,0,0,0-.55-1.32,1.87,1.87,0,0,0-3.2,1.32,23.66,23.66,0,0,0,.17,3.47,2.12,2.12,0,0,0,.4,1.13,1.79,1.79,0,0,0,1,.67,2.11,2.11,0,0,0,1,0,1.83,1.83,0,0,0,1.12-.86,3.31,3.31,0,0,0,.5-1.43,2.23,2.23,0,0,0-.19-.92A3.66,3.66,0,0,0,70,37.4l.29.38a2,2,0,0,1-.11-.2l.19.45a.83.83,0,0,1,0-.15l.07.5a1.77,1.77,0,0,1,0-.23l-.06.5v-.07l-3.68-.5a3.35,3.35,0,0,1,0,.55l.07-.5-.06.28,3.14-.83a.44.44,0,0,1-.09-.11l.29.38a1.62,1.62,0,0,1-.1-.18l.19.44A1.46,1.46,0,0,1,70,37.7l.06.5a5.3,5.3,0,0,1,0-.69,5.64,5.64,0,0,0-.12-1.16,1.78,1.78,0,0,0-.67-1,1.82,1.82,0,0,0-1.14-.4,2.19,2.19,0,0,0-.94.25,1.81,1.81,0,0,0-.86,1.13,4.43,4.43,0,0,0-.08,1,7.34,7.34,0,0,0,.16,1c.1.4.23.8.29,1.21l-.07-.5a2.41,2.41,0,0,1,0,.6l.06-.5a1.7,1.7,0,0,1,0,.22h3.61A13.89,13.89,0,0,1,70,38l.07.5a11.59,11.59,0,0,1,0-3,1.86,1.86,0,0,0-.55-1.33,1.9,1.9,0,0,0-1.32-.55,2,2,0,0,0-1.33.55l-.29.38a2,2,0,0,0-.26.95Z"/><path class="cls-1" d="M70.85,34.19a5.75,5.75,0,0,1,2.6-.25c1,.06,2.11.17,3.17.29,2,.23,4.09.56,6.12,1a1.93,1.93,0,0,0,2.31-1.31,1.9,1.9,0,0,0-1.31-2.31c-2.36-.47-4.74-.83-7.12-1.1-2.19-.25-4.64-.68-6.76.09a1.92,1.92,0,0,0-1.31,2.31,1.89,1.89,0,0,0,2.3,1.31Z"/><path class="cls-1" d="M66.45,37.41a6.31,6.31,0,0,0,.16,1.84A6,6,0,0,0,67.3,41a1.89,1.89,0,0,0,1.12.86,1.47,1.47,0,0,0,.75,0,1.41,1.41,0,0,0,.69-.22,1.88,1.88,0,0,0,.86-1.13,1.9,1.9,0,0,0-.18-1.44,5.12,5.12,0,0,1-.27-.52l.19.45a4.5,4.5,0,0,1-.3-1.13l.06.5a5,5,0,0,1,0-1,1.36,1.36,0,0,0-.16-.72,1.72,1.72,0,0,0-1-1,1.36,1.36,0,0,0-.72-.16,1.88,1.88,0,0,0-1.33.55l-.29.38a1.82,1.82,0,0,0-.26.94Z"/><path class="cls-1" d="M47.09,22.87a13.73,13.73,0,0,1,.34,1.67l-.07-.5a10.83,10.83,0,0,1,.1,1.12A2,2,0,0,0,48,26.49a1.88,1.88,0,0,0,2.66,0,1.89,1.89,0,0,0,.54-1.33,14.73,14.73,0,0,0-.51-3.29,1.92,1.92,0,0,0-.86-1.12,1.37,1.37,0,0,0-.7-.22,1.33,1.33,0,0,0-.74,0,1.92,1.92,0,0,0-1.13.86,2,2,0,0,0-.18,1.45Z"/></g></g></svg>