<svg xmlns="http://www.w3.org/2000/svg" viewBox="0 0 84.6 101.2"><defs><style>.cls-1{fill:#34c4f3;}</style></defs><g id="Layer_2" data-name="Layer 2"><g id="Layer_1-2" data-name="Layer 1"><path class="cls-1" d="M84.54,98.05A103.27,103.27,0,0,0,47.83,37.12,100.07,100.07,0,0,0,30.64,26c-2.86-1.46-5.39,2.86-2.52,4.32a98.63,98.63,0,0,1,46,50.06,97.09,97.09,0,0,1,5.6,19,2.5,2.5,0,0,0,4.82-1.33Z"/><path class="cls-1" d="M21.56,31.65,1.23,44.59A2.55,2.55,0,0,0,.33,48a2.54,2.54,0,0,0,3.42.9L24.08,36a2.55,2.55,0,0,0,.9-3.42,2.52,2.52,0,0,0-3.42-.9Z"/><path class="cls-1" d="M34.09,23A57.32,57.32,0,0,0,39.22,7.45,2.5,2.5,0,1,0,34.4,6.12a55.76,55.76,0,0,1-1.85,7.52,46.34,46.34,0,0,1-2.78,6.82A2.5,2.5,0,0,0,34.09,23Z"/><path class="cls-1" d="M18.13,24a81.25,81.25,0,0,1-11.36.21,2.52,2.52,0,0,0-2.5,2.5,2.57,2.57,0,0,0,2.5,2.5A81.25,81.25,0,0,0,18.13,29a2.5,2.5,0,0,0,0-5Z"/><path class="cls-1" d="M22.2,18.15A39.64,39.64,0,0,0,17.92,1.24,2.52,2.52,0,0,0,14.5.34a2.57,2.57,0,0,0-.9,3.42,34.42,34.42,0,0,1,3.6,14.39,2.5,2.5,0,0,0,5,0Z"/></g></g></svg>