<svg xmlns="http://www.w3.org/2000/svg" viewBox="0 0 59.33 69.88"><defs><style>.cls-1{fill:#34c4f3;}</style></defs><g id="Layer_2" data-name="Layer 2"><g id="Layer_1-2" data-name="Layer 1"><path class="cls-1" d="M2.38,3.75q27.2.3,54.38,1.49c2.41.1,2.41-3.65,0-3.75Q29.58.3,2.38,0C0,0,0,3.72,2.38,3.75Z"/><path class="cls-1" d="M0,2,1.67,49c.09,2.4,3.84,2.42,3.75,0L3.75,2C3.67-.41-.08-.42,0,2Z"/><path class="cls-1" d="M55,3.55a418.82,418.82,0,0,1,0,45.79c-.13,2.41,3.62,2.41,3.75,0a418.82,418.82,0,0,0,0-45.79c-.13-2.4-3.88-2.41-3.75,0Z"/><path class="cls-1" d="M3.16,50.92a51.39,51.39,0,0,0,11.77,9.66c4.11,2.5,8.42,4.75,11.88,8.15,1.73,1.69,4.38-1,2.65-2.65-3.49-3.44-7.78-5.82-11.95-8.32a49.16,49.16,0,0,1-11.7-9.5c-1.61-1.8-4.25.86-2.65,2.66Z"/><path class="cls-1" d="M29.69,69.62q7.73-4.41,15.21-9.2a77.18,77.18,0,0,0,13-9.94c1.71-1.7-.94-4.35-2.65-2.65a74.13,74.13,0,0,1-12.63,9.59q-7.3,4.66-14.84,9c-2.09,1.2-.21,4.44,1.89,3.24Z"/><path class="cls-1" d="M41.56,9.74l-11.84.07-5.42,0c-1.75,0-4-.34-5.62.3s-2,2-2.12,3.49a44.11,44.11,0,0,0-.26,5.75,46.33,46.33,0,0,0,.37,5.26,27.15,27.15,0,0,0,1.1,5.87,3.52,3.52,0,0,0,3.37,2.35,52.76,52.76,0,0,0,5.61-.33c3.95-.25,7.91-.57,11.86-.75a3.64,3.64,0,0,0,.81,0c.3-.1.39.32.08-.16A7.86,7.86,0,0,1,40,34.14a15.54,15.54,0,0,1,.17,5.31c-.57,3.23-2.45,6.07-4.42,8.62-.51.66-1,1.31-1.57,2a6,6,0,0,1-1.72,1.75c-.68.3-1.25-.31-1.81-.68l-2.28-1.53c-2.37-1.59-7.27-4-6-7.59.78-2.29-2.84-3.27-3.62-1-1.18,3.43.84,6.74,3.46,8.83,1.37,1.09,2.85,2,4.3,3s3,2.42,4.81,2.77c3.49.69,5.87-3.22,7.66-5.57a23.83,23.83,0,0,0,4.75-9.16A16.42,16.42,0,0,0,44,35.48c-.19-1.75-.28-4.07-1.16-5.64A4.06,4.06,0,0,0,38.93,28c-2.08,0-4.17.26-6.25.39l-5.93.37-3,.19-1.48.1a6,6,0,0,1-1.18.07c.34.18,0-.66,0-.74-.1-.47-.2-.94-.29-1.41-.17-.94-.32-1.88-.44-2.83a47.82,47.82,0,0,1-.31-6.22c0-1.12.07-2.24.16-3.36a5.94,5.94,0,0,0,.12-1.07c.07-.24,0-.21-.3.11h.81l6.91,0,13.81-.08c2.42,0,2.42-3.77,0-3.75Z"/></g></g></svg>