<svg xmlns="http://www.w3.org/2000/svg" viewBox="0 0 78.34 68.98"><defs><style>.cls-1{fill:#34c4f3;}</style></defs><g id="Layer_2" data-name="Layer 2"><g id="Layer_1-2" data-name="Layer 1"><path class="cls-1" d="M2.77,4.53a428,428,0,0,1,53.6.12c2.41.15,2.4-3.6,0-3.75A428,428,0,0,0,2.77.78C.37.92.36,4.67,2.77,4.53Z"/><path class="cls-1" d="M0,3.85A398.85,398.85,0,0,1,4.68,53.12q.23,7,.21,14.05a1.88,1.88,0,0,0,3.75,0A404.1,404.1,0,0,0,5.63,17q-.87-7.11-2-14.17A1.89,1.89,0,0,0,1.34,1.54,1.93,1.93,0,0,0,0,3.85Z"/><path class="cls-1" d="M7.47,68.76Q33.62,67.16,59.81,67q7.47,0,15,0c2.41,0,2.42-3.72,0-3.75q-26.19-.29-52.36.9-7.47.33-14.94.8c-2.4.14-2.41,3.89,0,3.75Z"/><path class="cls-1" d="M69.25,2.19l5.33,63.05c.2,2.38,4,2.41,3.75,0L73,2.19c-.2-2.39-4-2.41-3.75,0Z"/><path class="cls-1" d="M71.25.38,58,.83a1.92,1.92,0,0,0-1.88,1.88A1.89,1.89,0,0,0,58,4.58l13.3-.45a1.92,1.92,0,0,0,1.87-1.88A1.88,1.88,0,0,0,71.25.38Z"/><path class="cls-1" d="M38,38.46a91,91,0,0,0,17.23-.59A1.94,1.94,0,0,0,57.1,36a1.89,1.89,0,0,0-1.88-1.88A91,91,0,0,1,38,34.71a1.88,1.88,0,0,0,0,3.75Z"/><path class="cls-1" d="M45,38.23l.79,7.4c.22,2.08.75,4.6-.16,6.59a2.47,2.47,0,0,1-3.15,1.57,2.18,2.18,0,0,1-1-3.09c1.18-2.12-2.06-4-3.24-1.9a5.91,5.91,0,0,0,9.17,7.28C49.63,54,50,50.8,49.76,47.94c-.27-3.24-.68-6.47-1-9.71a1.93,1.93,0,0,0-1.88-1.87A1.88,1.88,0,0,0,45,38.23Z"/><path class="cls-1" d="M63,42.17a5.79,5.79,0,0,0-5.63,1.3A5.38,5.38,0,0,0,56,49a5.84,5.84,0,0,0,4.12,3.94l1.08.28c.16,0,.32.1.47.15-.35-.12.14.08.25.15s-.26-.18-.09-.05-.12-.25,0,0,0-.2,0-.21-.08.21,0,.1-.1.16-.09.15a2.2,2.2,0,0,1-.37.47,7.53,7.53,0,0,1-2.38,1.72,2.76,2.76,0,0,1-.52.18l-.29.08c-.31.07.36,0-.18,0h-.29c-.3,0,.22.07-.07,0,0,0-.4-.13-.23-.06S57,55.7,57,55.7a1.88,1.88,0,0,0-1.89,3.24c2,1.3,4.5.74,6.42-.45s4-3,4-5.3a3.56,3.56,0,0,0-1.75-2.94,9,9,0,0,0-2.46-.89l-.57-.16c-.31-.08.1.1-.18-.07a2.16,2.16,0,0,1-.63-.54c.11.16,0-.08,0-.09s-.12-.2-.17-.3c-.16-.28,0,.11-.08-.2a3.18,3.18,0,0,0-.09-.33s0-.31,0-.1,0-.61,0-.36,0-.06,0-.09l.09-.33c.1-.36.05-.11,0,0l.18-.3c0-.06.22-.24,0,0l.24-.24s.23-.2.08-.08.2-.13.23-.15l.23-.12c.25-.13-.37.08.12,0l.25-.07s.38-.08.17-.05.13,0,.18,0h.35c.22,0,0,0-.07,0a4.67,4.67,0,0,1,.5.14,1.9,1.9,0,0,0,2.31-1.31A1.92,1.92,0,0,0,63,42.17Z"/></g></g></svg>