<svg xmlns="http://www.w3.org/2000/svg" viewBox="0 0 268.29 21.03"><defs><style>.cls-1{fill:#34c4f3;}</style></defs><g id="Layer_2" data-name="Layer 2"><g id="Layer_1-2" data-name="Layer 1"><path class="cls-1" d="M5,18.53c.32-3.31,3.36-5.82,6.3-6.89,4.25-1.54,8.75-.66,12.94.64,4.88,1.52,9.56,3.7,14.6,4.66a22.65,22.65,0,0,0,13.91-1.38c3.42-1.54,6.41-3.87,9.47-6C65,7.64,68,5.51,71.42,5.07c4.21-.55,7.75,2.16,11.28,4A52.44,52.44,0,0,0,95.91,14,53.63,53.63,0,0,0,123.68,13c4.59-1.46,8.91-3.68,13.56-5a23.18,23.18,0,0,1,13.62.51c4.5,1.39,8.81,3.38,13.43,4.36a33,33,0,0,0,14.12-.1,32.91,32.91,0,0,0,6.88-2.43c2.08-1,3.92-2.36,6-3.4,4.18-2.13,8.39,1,12.17,2.64a30.57,30.57,0,0,0,14.47,2.49,30.66,30.66,0,0,0,7.16-1.39c2.23-.73,4.34-1.77,6.52-2.65A16.15,16.15,0,0,1,238,6.5c2.3.06,4.45,1.2,6.56,2a31.24,31.24,0,0,0,14.67,1.92,32.74,32.74,0,0,0,7.26-1.62,2.56,2.56,0,0,0,1.75-3.08A2.53,2.53,0,0,0,265.12,4a27.37,27.37,0,0,1-14.35,1.14c-4.76-.94-9.12-4-14.12-3.6s-9,3.13-13.59,4.52a25.76,25.76,0,0,1-14,.21c-4.64-1.24-8.61-4.39-13.43-5-5.28-.67-8.93,3-13.43,5a27.82,27.82,0,0,1-13.24,2.22c-4.78-.35-9.25-2.24-13.71-3.83s-9.27-3-14.11-2.49c-5,.49-9.57,2.44-14.19,4.28a50.14,50.14,0,0,1-27.28,3.2A48.07,48.07,0,0,1,86.4,5.41C82.17,3.29,78.3.34,73.41,0c-7.9-.51-13.92,5.85-20.18,9.62a17.56,17.56,0,0,1-11.81,2.68c-5.1-.69-9.84-2.89-14.68-4.5C22.07,6.28,17,5.2,12.11,6.22A16.45,16.45,0,0,0,2,12.71a12,12,0,0,0-2,5.82A2.52,2.52,0,0,0,2.51,21,2.55,2.55,0,0,0,5,18.53Z"/></g></g></svg>