<svg xmlns="http://www.w3.org/2000/svg" viewBox="0 0 234.98 80.09"><defs><style>.cls-1{fill:#34c4f3;}</style></defs><g id="Layer_2" data-name="Layer 2"><g id="Layer_1-2" data-name="Layer 1"><path class="cls-1" d="M.26,7Q1.58,35.62.84,64.34c-.06,2.41,3.69,2.41,3.75,0Q5.33,35.64,4,7C3.9,4.55.15,4.53.26,7Z"/><path class="cls-1" d="M.3,7.72,28.39,52.28l8,12.61c1.28,2,4.53.16,3.24-1.89L11.49,18.44,3.54,5.82C2.25,3.79-1,5.67.3,7.72Z"/><path class="cls-1" d="M39.84,4.35q0,29.7-1,59.4c-.08,2.41,3.67,2.41,3.75,0q1-29.68,1-59.4a1.88,1.88,0,0,0-3.75,0Z"/><path class="cls-1" d="M41.73,6.16A263.72,263.72,0,0,0,74,7.37c2.41-.06,2.42-3.81,0-3.75A263.72,263.72,0,0,1,41.73,2.41a1.9,1.9,0,0,0-1.88,1.88,1.92,1.92,0,0,0,1.88,1.87Z"/><path class="cls-1" d="M42,34.18A187,187,0,0,1,72.92,36.3,1.93,1.93,0,0,0,75.23,35a1.88,1.88,0,0,0-1.31-2.3A192.54,192.54,0,0,0,42,30.43c-2.41,0-2.42,3.78,0,3.75Z"/><path class="cls-1" d="M39.4,67a139.69,139.69,0,0,1,33.76.4A1.89,1.89,0,0,0,75,65.47a1.91,1.91,0,0,0-1.87-1.87,139.69,139.69,0,0,0-33.76-.4,1.94,1.94,0,0,0-1.87,1.88A1.88,1.88,0,0,0,39.4,67Z"/><path class="cls-1" d="M81.78,6c9.07,19.64,22.54,36.69,34.47,54.6.83,1.24,1.64,2.48,2.45,3.73s1.49,2.62,2.4,3.77a2.07,2.07,0,0,0,3.62-.27c.72-1.68-.64-2.81-2.16-3-1-.14-1.87,1-1.87,1.87a1.94,1.94,0,0,0,1.87,1.88l.3,0L121.53,68l.19.2-.48-1.83,0,.18.86-1.12-.15.1,1.45-.19-.15-.06,1.12.86C114.19,50,102.27,34.91,92.58,18.42,89.83,13.75,87.29,9,85,4.06,84,1.87,80.77,3.77,81.78,6Z"/><path class="cls-1" d="M125.42,3.63q-10.59,17-22.33,33.24a1.89,1.89,0,0,0,.67,2.57,1.92,1.92,0,0,0,2.57-.68q11.73-16.23,22.32-33.24c1.28-2.06-2-3.94-3.23-1.89Z"/><path class="cls-1" d="M96.92,43.78,81.22,66.57c-1.38,2,1.87,3.87,3.24,1.89l15.7-22.79c1.37-2-1.88-3.86-3.24-1.89Z"/><path class="cls-1" d="M137.75,4.42a212.83,212.83,0,0,1,37.78.36,1.88,1.88,0,0,0,1.87-1.87A1.92,1.92,0,0,0,175.53,1,212.83,212.83,0,0,0,137.75.67c-2.39.19-2.41,3.94,0,3.75Z"/><path class="cls-1" d="M154.42,3.2l-2.68,51.39L151,69.24c-.13,2.41,3.62,2.4,3.75,0l2.68-51.39.76-14.65c.13-2.41-3.62-2.4-3.75,0Z"/><path class="cls-1" d="M184.44,67.43l-.14,0a3.25,3.25,0,0,0-.54.23,3.49,3.49,0,0,0-.47.37l-.09.09a2.82,2.82,0,0,0-.6,1,2.25,2.25,0,0,0-.06.36,2.45,2.45,0,0,0,0,.38c0,.1,0,.21,0,.29a1.67,1.67,0,0,0,.05.31.19.19,0,0,0,0,.07,5,5,0,0,0,.2.49,2.47,2.47,0,0,0,.44.58,3.94,3.94,0,0,0,.45.36l.13.07a2.61,2.61,0,0,0,1.17.31,1.38,1.38,0,0,0,.72-.16,1.31,1.31,0,0,0,.6-.39,1.49,1.49,0,0,0,.39-.6,1.36,1.36,0,0,0,.16-.72,1.88,1.88,0,0,0-.55-1.33l-.38-.29a1.85,1.85,0,0,0-.94-.26,1.75,1.75,0,0,0-.4,0,2,2,0,0,0-.81.25,1.76,1.76,0,0,0-.61.47,2.41,2.41,0,0,0-.53.9l-.06.5.06.5a.64.64,0,0,0,0,.07,5.15,5.15,0,0,0,.23.54s0,.09.07.13a2.79,2.79,0,0,0,1,1,2.73,2.73,0,0,0,.69.26,2.66,2.66,0,0,0,.75.07,4,4,0,0,0,.59-.08l.12,0a2.7,2.7,0,0,0,1-.6,2.76,2.76,0,0,0,.75-1.22,3.17,3.17,0,0,0,.12-.74,3.7,3.7,0,0,0-.07-.76,2.33,2.33,0,0,0-.07-.25,2.86,2.86,0,0,0-.6-1,2.72,2.72,0,0,0-1.25-.77,3.17,3.17,0,0,0-.74-.12,3.79,3.79,0,0,0-.77.08l-.26.08a3.26,3.26,0,0,0-.68.32,2.74,2.74,0,0,0-.55.47,2,2,0,0,0-.5.85,1.92,1.92,0,0,0,0,1,.84.84,0,0,0,.05.17,3.28,3.28,0,0,0,.25.58,3.53,3.53,0,0,0,.36.48,2.35,2.35,0,0,0,.6.49,1.84,1.84,0,0,0,.69.29,3,3,0,0,0,.6.08h.08a3.43,3.43,0,0,0,.56-.07,2.47,2.47,0,0,0,1.52-1.12,2.33,2.33,0,0,0,.34-1.15,2.39,2.39,0,0,0-.28-1.18,2,2,0,0,0-.47-.62,2.44,2.44,0,0,0-1.06-.6,2.34,2.34,0,0,0-1.26,0,4.73,4.73,0,0,0-.47.2l-.08,0a2.07,2.07,0,0,0-.47.37,2.43,2.43,0,0,0-.68,1.77,2.48,2.48,0,0,0,.31,1.16,2.38,2.38,0,0,0,.83.84,1.39,1.39,0,0,0,.7.23,1.72,1.72,0,0,0,1.38-.37,1.39,1.39,0,0,0,.49-.53,1.91,1.91,0,0,0,.19-1.44l-.19-.45a1.87,1.87,0,0,0-.67-.67l0,0,.38.29a.3.3,0,0,1-.08-.08l.29.38-.06-.1.19.45a.83.83,0,0,1,0-.15l.07.5a.49.49,0,0,1,0-.17l-.07.5a.83.83,0,0,1,0-.15l-.19.45a.35.35,0,0,1,.07-.12l-.29.38a.43.43,0,0,1,.09-.1l-.38.29.1,0-.45.19.11,0-.5.07h.13l-.5-.07.13,0-.45-.19.14.08-.38-.29a.57.57,0,0,1,.11.11l-.29-.38a1,1,0,0,1,.08.14l-.19-.45,0,.13-.07-.5a.21.21,0,0,1,0,.11l.07-.5a.93.93,0,0,1,0,.13l.19-.45-.07.11.3-.38-.1.09.38-.29a.51.51,0,0,1-.16.09l.45-.19-.16,0,.5-.07a.6.6,0,0,1-.19,0l.5.07-.16,0,.44.19-.15-.09.38.3a.91.91,0,0,1-.17-.17l.29.37a.72.72,0,0,1-.12-.21l.19.45a.76.76,0,0,1-.06-.2L186,71l0,0-.3.38a1.37,1.37,0,0,1,.17-.17l-.38.29a1.12,1.12,0,0,1,.24-.13l-.45.19a.9.9,0,0,1,.28-.08l-.5.06a1.5,1.5,0,0,1,.3,0l-.5-.07a1.25,1.25,0,0,1,.26.07l-.45-.19a1.13,1.13,0,0,1,.21.12l-.38-.29.15.14-.3-.38a.82.82,0,0,1,.12.2l-.19-.45a.9.9,0,0,1,.07.27l-.06-.5a1.41,1.41,0,0,1,0,.29l.06-.5a1.05,1.05,0,0,1-.06.24l.19-.44a1.18,1.18,0,0,1-.11.19l.29-.38a.67.67,0,0,1-.14.15l.38-.29-.17.1.44-.19a.65.65,0,0,1-.21.06l.5-.07h-.25l.5.07a1.12,1.12,0,0,1-.26-.08l.45.19a.94.94,0,0,1-.22-.12l.38.29a1.14,1.14,0,0,1-.15-.16l.29.38a.46.46,0,0,1-.09-.17l.19.45a.42.42,0,0,1,0-.12l-.19,1.45a.35.35,0,0,1,0-.08l-.3.38.1-.1-.37.29.12-.07-.44.19a.2.2,0,0,1,.11,0l-.5.06H185V68.66h-.06l.5.06a.58.58,0,0,1-.14,0l.45.18a.53.53,0,0,1-.15-.08l.37.29a.93.93,0,0,1-.14-.14l.3.38a.6.6,0,0,1-.09-.15l.19.44a.65.65,0,0,1,0-.13l.07.49a.48.48,0,0,1,0-.17l-.07.5a1.09,1.09,0,0,1,.05-.17l-.19.45.09-.15-.29.38.12-.12-.38.29.15-.08-.45.19.14,0a1.37,1.37,0,0,0,.64-.34,1.33,1.33,0,0,0,.48-.52,1.39,1.39,0,0,0,.23-.7,1.47,1.47,0,0,0,0-.75,1.86,1.86,0,0,0-.86-1.12l-.45-.19a1.85,1.85,0,0,0-1,0Z"/><path class="cls-1" d="M208.24,39.81a157,157,0,0,1-2.06,28.48,10.38,10.38,0,0,1-1.88,5c-.81.94-2.47,1.77-3.72,1.19-1.53-.72-1.52-3.34-1.55-4.74a17.2,17.2,0,0,1,1.23-6.64A1.9,1.9,0,0,0,199,60.8a1.92,1.92,0,0,0-2.31,1.31c-1.42,3.69-2,8.46-.66,12.26s5.17,4.89,8.61,3.29,4.7-5.31,5.27-8.76c.75-4.48,1.23-9,1.59-13.54q.6-7.76.54-15.55c0-2.41-3.77-2.42-3.75,0Z"/><path class="cls-1" d="M230.55,53.43c-3.8-1.42-8.23-1.19-11.44,1.47-2.59,2.14-5,7.47-1.4,9.84,3.38,2.2,7.77.6,11.34,2.13a3,3,0,0,1,2.19,3c-.17,1.79-1.66,3.06-3.11,3.9-3.46,2-8.44,3.69-12.31,1.93a1.94,1.94,0,0,0-2.57.67,1.89,1.89,0,0,0,.68,2.57c3.9,1.77,8.15,1.36,12.09-.1,3.69-1.38,7.94-3.55,8.82-7.79.82-4-2-7-5.66-8.07a27.39,27.39,0,0,0-5.86-.63,11.12,11.12,0,0,1-3-.49c-.84-.28-.81-.47-.58-1.37,1.1-4.36,6.27-4.74,9.79-3.42a1.89,1.89,0,0,0,2.3-1.31,1.91,1.91,0,0,0-1.31-2.31Z"/><path class="cls-1" d="M197.18,40.18q13.38,1.6,26.82,2.66c2.4.19,2.39-3.56,0-3.75Q210.56,38,197.18,36.43a1.89,1.89,0,0,0-1.87,1.88,1.91,1.91,0,0,0,1.87,1.87Z"/></g></g></svg>