<svg xmlns="http://www.w3.org/2000/svg" viewBox="0 0 123.72 101.53"><defs><style>.cls-1{fill:#34c4f3;}</style></defs><g id="Layer_2" data-name="Layer 2"><g id="Layer_1-2" data-name="Layer 1"><path class="cls-1" d="M4.13,49.47c4.15-5.78,11.43-7.23,17.93-8.78,8.63-2.07,17.37-4.32,26.2-5.35s17.68,0,26.52,1.3c8.64,1.23,17.32,2.29,25.93,3.73A60,60,0,0,1,112,43.22a32.69,32.69,0,0,1,5.29,2.57c1.14.69,2.48,1.66,2.73,3.07a3.22,3.22,0,0,1-1.81,3.19,29.11,29.11,0,0,1-5.05,2.38A82.69,82.69,0,0,1,101,58.35a179.42,179.42,0,0,1-26.27,4,218.86,218.86,0,0,1-26.61.69,154.66,154.66,0,0,1-24-2.3c-6.28-1.22-12.53-3.44-17.21-8a24.55,24.55,0,0,1-3.28-3.91C2.21,46.9-1,48.77.33,50.77a31.63,31.63,0,0,0,17.4,12.28c7.62,2.33,15.85,2.9,23.75,3.42A215.55,215.55,0,0,0,98.16,62.8a89.22,89.22,0,0,0,13.32-3.72q3.24-1.2,6.37-2.64a11.75,11.75,0,0,0,4.31-2.91c2.55-3,1.81-7.12-1.09-9.61s-7.2-4.15-11-5.29a86.15,86.15,0,0,0-12.42-2.49c-4.68-.68-9.35-1.33-14-2-9.45-1.35-19-3.22-28.62-3s-18.77,2.46-27.95,4.56c-4.26,1-8.56,1.87-12.75,3.12a28.27,28.27,0,0,0-9.59,4.68A20,20,0,0,0,.89,47.58a1.89,1.89,0,0,0,.68,2.56,1.9,1.9,0,0,0,2.56-.67Z"/><path class="cls-1" d="M27.17,4.29A18.89,18.89,0,0,1,37.91,6.41a65.76,65.76,0,0,1,9.29,6.44c6.88,5.28,13.95,10.56,20.08,16.71S77.53,43.16,81.5,50.82c4.2,8.08,8.58,16.1,12.55,24.29a50.6,50.6,0,0,1,4.08,11.18,29.33,29.33,0,0,1,.7,6,6.26,6.26,0,0,1-1.12,4c-2.62,3.27-7.09.43-9.89-1a74.22,74.22,0,0,1-11-6.9A152.58,152.58,0,0,1,58.31,71.22,182.9,182.9,0,0,1,42.79,52.38,170.22,170.22,0,0,1,30,31.82C26.54,25.14,24,17.64,25.39,10a29.26,29.26,0,0,1,1.84-6.22,1.94,1.94,0,0,0-.67-2.56A1.89,1.89,0,0,0,24,1.93a31.78,31.78,0,0,0-2.7,13.31,36.13,36.13,0,0,0,2.54,12c3,7.83,7.65,15.14,12.3,22.09a184.8,184.8,0,0,0,35,39.18,83.38,83.38,0,0,0,11.44,8.12c2,1.14,4,2.2,6.06,3.17a14.62,14.62,0,0,0,5.78,1.73,8.12,8.12,0,0,0,8-7.09c.63-4.07-.32-8.56-1.53-12.44A75.42,75.42,0,0,0,95.8,70.24c-2.21-4.31-4.46-8.6-6.7-12.9C84.73,48.91,80.73,40,74.88,32.51c-5.6-7.22-12.94-12.84-20.07-18.45-3.61-2.85-7.21-5.74-11-8.38A27.87,27.87,0,0,0,33.5.86,21.69,21.69,0,0,0,27.17.54c-2.38.23-2.4,4,0,3.75Z"/><path class="cls-1" d="M95.45.09a22.34,22.34,0,0,0-12,2.3,60.45,60.45,0,0,0-10,6.78c-7.35,5.64-15,11.25-21.46,17.92S41.25,42,37,50.25L30.07,63.53c-2.07,4-4.24,8-6.05,12.08a45.7,45.7,0,0,0-3.69,12.51c-.48,3.7-.59,7.91,2.3,10.73,3.35,3.27,7.6,2.27,11.39.5A75.07,75.07,0,0,0,45.94,92.4a145.44,145.44,0,0,0,20.14-18A190.32,190.32,0,0,0,82.83,54.18a163.34,163.34,0,0,0,13.55-22c3.76-7.5,6-15.67,4.39-24.07a33.25,33.25,0,0,0-2.14-6.67A1.88,1.88,0,0,0,96.07.82a1.92,1.92,0,0,0-.68,2.56c3.22,7.6,2.55,15.62-.5,23.15C92,33.74,87.57,40.54,83.26,47A184.9,184.9,0,0,1,50.83,83.74a85.21,85.21,0,0,1-10.52,7.93q-2.69,1.68-5.51,3.13a25.44,25.44,0,0,1-5.43,2.38c-3.59.87-5.59-2.15-5.57-5.36A34.29,34.29,0,0,1,26.26,80a99.9,99.9,0,0,1,5.1-10.77L37.9,56.57c4-7.78,7.75-16.06,13.32-22.9,5.38-6.61,12.22-11.86,18.87-17.11,3.39-2.67,6.77-5.38,10.28-7.88a26.06,26.06,0,0,1,9.37-4.57,18.24,18.24,0,0,1,5.71-.27c2.4.23,2.39-3.52,0-3.75Z"/><path class="cls-1" d="M61,45.69a1.06,1.06,0,0,0-.19.06,2.9,2.9,0,0,0-.57.25,4.82,4.82,0,0,0-.51.38l-.12.13a3.12,3.12,0,0,0-.64,1.1,2.79,2.79,0,0,0-.07.4,3.13,3.13,0,0,0,0,.43,3.26,3.26,0,0,0,.33,1.23,2.58,2.58,0,0,0,.49.65,3,3,0,0,0,.48.39l.17.1a3,3,0,0,0,1.25.33,2,2,0,0,0,1.32-.55,1.9,1.9,0,0,0,.55-1.33,1.88,1.88,0,0,0-.55-1.32l-.38-.3a1.94,1.94,0,0,0-.94-.25,1.68,1.68,0,0,0-.45,0,2.4,2.4,0,0,0-.85.27,2,2,0,0,0-.69.53,2.44,2.44,0,0,0-.55.93,2.11,2.11,0,0,0,0,1l0,.1a2.92,2.92,0,0,0,.34.74,3.11,3.11,0,0,0,1.17,1,3.2,3.2,0,0,0,1.61.36,3,3,0,0,0,.79-.13A3.33,3.33,0,0,0,64,51.63a3,3,0,0,0,.84-1.36A3.3,3.3,0,0,0,65,48.59a3.12,3.12,0,0,0-.74-1.43,3.08,3.08,0,0,0-1.39-.87,3.5,3.5,0,0,0-1.7,0,2.78,2.78,0,0,0-1.12.48,3.36,3.36,0,0,0-.61.52,2.08,2.08,0,0,0-.5.86,1.92,1.92,0,0,0,0,1,1.68,1.68,0,0,0,.07.24,3.82,3.82,0,0,0,.66,1.14,2.9,2.9,0,0,0,.68.57,2.75,2.75,0,0,0,2.1.31,2.67,2.67,0,0,0,1.67-1.21,2.42,2.42,0,0,0,.37-1.22,2.56,2.56,0,0,0-.3-1.27,2.2,2.2,0,0,0-.52-.69,2.75,2.75,0,0,0-1.15-.65,2.48,2.48,0,0,0-1.35,0c-.15.05-.33.14-.48.2l-.11.06A2.09,2.09,0,0,0,60,47a2.66,2.66,0,0,0-.74,1.93,2.51,2.51,0,0,0,1.22,2.14,2.09,2.09,0,0,0,1.45.18,1.87,1.87,0,0,0,1.31-2.3l-.19-.45a1.82,1.82,0,0,0-.68-.67l0,0,.38.29a.36.36,0,0,1-.1-.11l.29.38a.57.57,0,0,1-.08-.13l.19.45a.8.8,0,0,1,0-.21l.06.5a.81.81,0,0,1,0-.22l-.06.5A.8.8,0,0,1,63,49l-.19.45.09-.17-.29.38.13-.13-.38.3a.57.57,0,0,1,.13-.08l-.45.19.14,0-.49.07h.17l-.5-.06a.61.61,0,0,1,.18,0l-.45-.19a.72.72,0,0,1,.19.11l-.38-.3.15.16-.29-.38a.69.69,0,0,1,.1.19l-.18-.45a1,1,0,0,1,0,.17l-.07-.5a.38.38,0,0,1,0,.15l.07-.5a1.09,1.09,0,0,1,0,.17l.19-.45a.56.56,0,0,1-.1.15l.3-.37-.13.12.38-.29-.22.13.45-.19-.21,0,.49-.06h-.25l.5.07a1,1,0,0,1-.23-.07l.45.19-.21-.12.38.29a1,1,0,0,1-.23-.23l.29.38a1.56,1.56,0,0,1-.16-.28l.19.44a.92.92,0,0,1-.08-.27l-.19,1.44,0,0-.29.38a1.25,1.25,0,0,1,.23-.23L61.9,50a1.92,1.92,0,0,1,.31-.18l-.45.19a1.9,1.9,0,0,1,.39-.11l-.5.07a1.8,1.8,0,0,1,.4,0l-.5-.06a1.06,1.06,0,0,1,.35.09l-.44-.19a1.12,1.12,0,0,1,.28.16l-.38-.29a1.8,1.8,0,0,1,.2.19l-.3-.38a1.28,1.28,0,0,1,.16.27l-.19-.45a1.2,1.2,0,0,1,.1.37l-.06-.5a2.54,2.54,0,0,1,0,.39l.06-.5a1,1,0,0,1-.09.33l.19-.45a1.17,1.17,0,0,1-.15.27l.3-.38a1,1,0,0,1-.2.2l.38-.29a1.28,1.28,0,0,1-.23.14l.45-.19a1.38,1.38,0,0,1-.29.08l.5-.07h-.34l.5.06a1.08,1.08,0,0,1-.35-.1l.44.19a1.17,1.17,0,0,1-.28-.17l.38.3a1.45,1.45,0,0,1-.21-.22l.29.38a1,1,0,0,1-.13-.22l.19.44a.75.75,0,0,1,0-.16l-.19,1.45.06-.11-.29.38.14-.14L62,51a.59.59,0,0,1,.17-.1l-.45.19.16,0-.5.07h.2V47.39h-.08l.5.07-.19-.05.45.18a1.39,1.39,0,0,1-.21-.11l.38.29a1.14,1.14,0,0,1-.19-.19l.29.38a1.06,1.06,0,0,1-.11-.21l.18.45a1.05,1.05,0,0,1,0-.19l.07.5a1,1,0,0,1,0-.24l-.07.5a1.42,1.42,0,0,1,.07-.22L62.4,49a.88.88,0,0,1,.12-.21l-.29.38A1.29,1.29,0,0,1,62.4,49l-.38.29a1.32,1.32,0,0,1,.2-.12l-.45.19.19,0A1.37,1.37,0,0,0,62.6,49a1.42,1.42,0,0,0,.48-.52A1.89,1.89,0,0,0,63.27,47a1.93,1.93,0,0,0-.86-1.12L62,45.69a2.07,2.07,0,0,0-1,0Z"/></g></g></svg>