<svg xmlns="http://www.w3.org/2000/svg" viewBox="0 0 91.63 81.17"><defs><style>.cls-1{fill:none;stroke:#34c4f3;stroke-linecap:round;stroke-width:2.5px;}.cls-2{fill:#34c4f3;}</style></defs><g id="Layer_2" data-name="Layer 2"><g id="Layer_1-2" data-name="Layer 1"><ellipse class="cls-1" cx="45.81" cy="40.59" rx="44.56" ry="15.14" transform="translate(-12.24 59.97) rotate(-60)"/><ellipse class="cls-1" cx="45.81" cy="40.59" rx="15.14" ry="44.56" transform="translate(-14.15 28.34) rotate(-30)"/><ellipse class="cls-1" cx="45.81" cy="40.59" rx="44.56" ry="15.14"/><path class="cls-2" d="M44.67,36.65a2.63,2.63,0,0,0-.89.35,3.2,3.2,0,0,0-.73.6,3.68,3.68,0,0,0-.69,1.22,3.4,3.4,0,0,0-.09.46,2.7,2.7,0,0,0,0,.49,3.15,3.15,0,0,0,3.05,3,1.89,1.89,0,0,0,1.33-.54,2,2,0,0,0,.55-1.33,2,2,0,0,0-.55-1.33l-.38-.29a2,2,0,0,0-.95-.26,2.87,2.87,0,0,0-1.44.32A2.54,2.54,0,0,0,43,40a2.62,2.62,0,0,0-.56,1,2.1,2.1,0,0,0,0,1.14,3,3,0,0,0,.41.85,3.47,3.47,0,0,0,1.37,1.21,3.66,3.66,0,0,0,1.87.41,3.41,3.41,0,0,0,.9-.17,3.68,3.68,0,0,0,1.2-.69,3.51,3.51,0,0,0,1-1.57,3.84,3.84,0,0,0,.09-2,3.58,3.58,0,0,0-.84-1.67,3.48,3.48,0,0,0-1.62-1,3.91,3.91,0,0,0-2-.07A3.33,3.33,0,0,0,43.5,38a3.46,3.46,0,0,0-.7.62,2.05,2.05,0,0,0-.52.86,2,2,0,0,0,0,1,2.07,2.07,0,0,0,.1.33,4.25,4.25,0,0,0,.72,1.26,3.25,3.25,0,0,0,.8.68,3.17,3.17,0,0,0,2.37.37,3.06,3.06,0,0,0,1.89-1.35,2.67,2.67,0,0,0,.41-1.34,2.78,2.78,0,0,0-.31-1.39,3,3,0,0,0-1.89-1.54,2.74,2.74,0,0,0-2.68.73,3,3,0,0,0-.82,2.18,3.16,3.16,0,0,0,.37,1.34,2.84,2.84,0,0,0,1,1,1.87,1.87,0,0,0,2.56-.67A1.89,1.89,0,0,0,47,40.67a2.09,2.09,0,0,0-.86-1.12.18.18,0,0,1-.07,0l.38.29a.54.54,0,0,1-.15-.15l.29.38a1.74,1.74,0,0,1-.11-.18l.19.44a1.38,1.38,0,0,1-.08-.29l.07.5a1.6,1.6,0,0,1,0-.31l-.07.5a1.67,1.67,0,0,1,.08-.3l-.19.45a1,1,0,0,1,.13-.22l-.3.38a1.62,1.62,0,0,1,.18-.19l-.38.3a.72.72,0,0,1,.19-.11l-.44.19.19,0-.5.07a1,1,0,0,1,.25,0l-.5-.07.24.07L45.07,41a1.48,1.48,0,0,1,.27.16l-.38-.3a1.45,1.45,0,0,1,.21.22l-.29-.38A1.35,1.35,0,0,1,45,41l-.19-.44a.94.94,0,0,1,.06.24l-.06-.5a1.34,1.34,0,0,1,0,.2l.07-.5a1,1,0,0,1-.07.24l.19-.44a2.39,2.39,0,0,1-.13.21l.29-.38-.17.18.38-.3a1.39,1.39,0,0,1-.31.18l.45-.19a1.11,1.11,0,0,1-.3.08l.5-.06a1.45,1.45,0,0,1-.36,0l.5.07a1.92,1.92,0,0,1-.32-.09l.45.19a1.69,1.69,0,0,1-.29-.17l.38.29a1.67,1.67,0,0,1-.33-.32l.3.38a1.8,1.8,0,0,1-.23-.4l.18.44a2.22,2.22,0,0,1-.11-.39l-.19,1.45,0,0-.29.38a2,2,0,0,1,.32-.33l-.38.3a2.21,2.21,0,0,1,.44-.26l-.44.19a2.39,2.39,0,0,1,.54-.15l-.5.06a2.62,2.62,0,0,1,.56,0l-.5-.07a1.69,1.69,0,0,1,.49.13L45.53,41a1.71,1.71,0,0,1,.4.22l-.38-.29a1.48,1.48,0,0,1,.28.28l-.29-.38a2,2,0,0,1,.22.37l-.19-.44a2.13,2.13,0,0,1,.14.51l-.07-.5a2.44,2.44,0,0,1,0,.54l.07-.5a1.93,1.93,0,0,1-.13.47l.19-.45a1.41,1.41,0,0,1-.21.38l.29-.38a1.33,1.33,0,0,1-.26.27l.38-.29a2.23,2.23,0,0,1-.33.2l.45-.19a1.91,1.91,0,0,1-.41.11l.5-.07a1.85,1.85,0,0,1-.47,0l.5.07a2.85,2.85,0,0,1-.5-.14l.45.18a2.06,2.06,0,0,1-.41-.23l.38.29a2.06,2.06,0,0,1-.29-.3l.29.38a1.65,1.65,0,0,1-.18-.32l.19.45a1.55,1.55,0,0,1-.07-.23l-.19,1.45.09-.15-.3.38a1.8,1.8,0,0,1,.2-.19l-.38.29a1.49,1.49,0,0,1,.24-.14l-.44.19.21-.06-.5.07a.89.89,0,0,1,.28,0V39.05h-.11l.5.07L45.41,39l.44.19a1.61,1.61,0,0,1-.28-.17l.38.3a1.24,1.24,0,0,1-.28-.28l.3.38a1.12,1.12,0,0,1-.16-.28l.18.44a2,2,0,0,1-.07-.26l.07.5a1.82,1.82,0,0,1,0-.33l-.07.5a1.19,1.19,0,0,1,.1-.32l-.19.45a1.61,1.61,0,0,1,.17-.28l-.29.38a1.31,1.31,0,0,1,.23-.24l-.38.3a1.38,1.38,0,0,1,.29-.17l-.45.19a1.25,1.25,0,0,1,.26-.07A1.88,1.88,0,0,0,47,38a1.86,1.86,0,0,0-.86-1.12l-.45-.19a1.85,1.85,0,0,0-1,0Z"/></g></g></svg>