<svg xmlns="http://www.w3.org/2000/svg" viewBox="0 0 52.85 40.57"><defs><style>.cls-1{fill:#34c4f3;}</style></defs><g id="Layer_2" data-name="Layer 2"><g id="Layer_1-2" data-name="Layer 1"><path class="cls-1" d="M35.56,7.69A22,22,0,0,0,49.74,27.36V22.54c-3.9,1-8,2.12-11.3,4.53a15.74,15.74,0,0,0-4.25,4.58c-.85,1.42-1.51,3.33-3,4.25l3.67,1.49c-.68-2.26-.06-4.69.19-7a10.76,10.76,0,0,0-1.3-7.34A2.51,2.51,0,0,0,29.21,25l.35,2,3.67-2.82A26,26,0,0,0,24.16,20c-.18-.05-1-.49-1.14-.48s1,2.05-.46,1.19c-.1-.06.39-.06.43-.06A26.42,26.42,0,0,0,27.32,20,18,18,0,0,0,39.51,8.27c1-3.06-3.83-4.38-4.82-1.32a12.48,12.48,0,0,1-4.93,6.46A12.85,12.85,0,0,1,26,15.17c-1.49.41-3,.28-4.47.61-4.33,1-4.24,6.34-.67,8.27,1.6.86,3.5,1,5.18,1.72a21.05,21.05,0,0,1,4.68,2.71,2.45,2.45,0,0,0,2.77-.19,2.58,2.58,0,0,0,.9-2.63l-.35-2-4.57,1.93c1.16,1.76.75,3.94.48,5.92a17.18,17.18,0,0,0,.13,7.21,2.53,2.53,0,0,0,3.67,1.5c3.41-2.14,4.09-6.36,7.17-8.78,2.88-2.28,6.68-3.19,10.16-4.08,2.57-.66,2.17-4,0-4.82A16.85,16.85,0,0,1,40.56,7.69c-.12-3.2-5.12-3.22-5,0Z"/><path class="cls-1" d="M29.07,23.81a26.52,26.52,0,0,0,12-7.76L36.9,13.61c.11-.27-.1.19-.15.27s-.23.39-.35.57-.26.33-.1.14c-.15.18-.3.35-.46.51a16.4,16.4,0,0,1-1.69,1.49,51.34,51.34,0,0,1-4.9,3.25c-1.47.86-1.79,3.56,0,4.32a8.38,8.38,0,0,0,6.32.23A19.58,19.58,0,0,0,40.93,21l-4.26-1.76-.15,1.58a2.52,2.52,0,0,0,2.5,2.5,2.55,2.55,0,0,0,2.5-2.5l.17-1.77-4.91.66a4.25,4.25,0,0,1,0,1.55,7.32,7.32,0,0,1-.58,1.58,18.31,18.31,0,0,1-2.36,3.24,2.55,2.55,0,0,0,0,3.53,2.52,2.52,0,0,0,3.53,0l5.06-5-4.18-1.1.06-.31c-.08.28-.1.34,0,.16a5.2,5.2,0,0,1-.45.7c-.46.7-.95,1.38-1.43,2.07l-2.78,4a2.51,2.51,0,0,0,3.93,3,39,39,0,0,1,6.37-6.34,2.57,2.57,0,0,0,1-3.13A2.5,2.5,0,0,0,42,22.25a9.5,9.5,0,0,1-2.24.44,12,12,0,0,1-1.34,0c-.23,0-.45,0-.68-.05-.47,0,.56.12-.26,0a10.15,10.15,0,0,1-4.57-1.94A2.5,2.5,0,0,0,30.34,25a15,15,0,0,0,12.94,2.07L41.35,22.5A43.25,43.25,0,0,0,34,29.62l3.93,3,3.35-4.82c1.17-1.68,2.51-3.49,1.81-5.65a2.53,2.53,0,0,0-4.18-1.11l-5.06,5,3.53,3.53c2.72-3.21,5.24-6.79,4.25-11.23a2.49,2.49,0,0,0-2.74-1.79,2.55,2.55,0,0,0-2.17,2.46l-.17,1.77h5l.15-1.58A2.49,2.49,0,0,0,40.13,17a2.61,2.61,0,0,0-2.73.52,14.2,14.2,0,0,1-3.22,2.1,3.91,3.91,0,0,0-.48.15l-.55.14c-.32.06-.38.07-.18,0a3.93,3.93,0,0,1-.84,0c.46.06-.72-.22-.36-.07v4.32c3.84-2.25,8.24-4.91,10-9.22.92-2.32-2.59-4.24-4.18-2.43A21.43,21.43,0,0,1,27.74,19a2.5,2.5,0,1,0,1.33,4.82Z"/><path class="cls-1" d="M7.48,2.52a11,11,0,0,0,7.13,9.81V7.51A15,15,0,0,0,9.45,9.58,8.39,8.39,0,0,0,7.14,12c-.21.35-.4.72-.61,1.08a2.88,2.88,0,0,1-.3.47q.3-.4,0-.09c.28-.2.3-.21.07-.06L10,14.87l-.09-.36s0,.54,0,.1c0-.25,0-.5,0-.76.05-.55.14-1.1.2-1.65a5.82,5.82,0,0,0-.76-3.81,2.53,2.53,0,0,0-3.12-1,2.56,2.56,0,0,0-1.45,3l.15.86L8.63,8.35a11.71,11.71,0,0,0-4-1.9,2.8,2.8,0,0,0-.51-.14c.21-.06.62.47.7.59L3.69,9.47c-.35,0-.42,0-.23,0l.36,0A8.76,8.76,0,0,0,6,9.08,9.24,9.24,0,0,0,12,3.15,2.52,2.52,0,0,0,10.24.07,2.57,2.57,0,0,0,7.16,1.82c-.06.17-.1.65,0,.1a2,2,0,0,1-.21.41l-.24.4c0,.07-.37.48-.13.2s-.12.12-.17.18L6,3.5s-.47.38-.17.16-.15.09-.21.13a2.5,2.5,0,0,1-.81.45c.28-.11.34-.14.16-.07l-.26.09-.45.13a1.18,1.18,0,0,1-.45.1c.22.06.41,0,0,0a8,8,0,0,0-1.46.17A3.23,3.23,0,0,0,0,7.65a3.57,3.57,0,0,0,1.88,3.11,16.23,16.23,0,0,0,2.54.88c-.5-.18.14.06.21.1l.38.2a10.41,10.41,0,0,1,1.1.72,2.48,2.48,0,0,0,2.78-.19,2.57,2.57,0,0,0,.89-2.63L9.63,9,5.06,10.91a2.07,2.07,0,0,1,.19.32c-.13-.33-.15-.36-.07-.1s.06.23,0-.14c0,.12,0,.24,0,.37a11.35,11.35,0,0,1-.13,1.42,8.21,8.21,0,0,0,.11,3.42,2.52,2.52,0,0,0,3.67,1.49A6.6,6.6,0,0,0,11,15.25c.18-.33.38-.65.57-1-.28.48,0,0,.09-.09s.32-.3.48-.44.1-.09-.13.1a1.88,1.88,0,0,1,.23-.16,6.65,6.65,0,0,1,.58-.33l.52-.26c-.39.19-.11.05.12,0,.8-.29,1.62-.51,2.44-.72a2.55,2.55,0,0,0,1.84-2.41,2.64,2.64,0,0,0-1.84-2.41c-.59-.23.46.24-.1,0l-.5-.27c-.16-.09-.31-.2-.47-.3-.4-.24.2.19,0,0a10.14,10.14,0,0,1-.76-.71,5.14,5.14,0,0,1-.38-.42c-.41-.46.27.43-.07-.09a10,10,0,0,1-.54-.89,1.38,1.38,0,0,1-.21-.42c.12.31.13.33,0,.07l-.07-.17a10.34,10.34,0,0,1-.3-1.09l0-.19c0-.28,0-.25,0,.11a1.81,1.81,0,0,1,0-.57,2.5,2.5,0,0,0-5,0Z"/><path class="cls-1" d="M6.51,10.8a12.74,12.74,0,0,0,5.78-3.69L8.11,4.68l0,.11.26-.6a3.74,3.74,0,0,1-.42.69l.39-.5a6.69,6.69,0,0,1-1,1L7.77,5A20.74,20.74,0,0,1,5.48,6.49,2.52,2.52,0,0,0,4.25,8.65a2.43,2.43,0,0,0,1.23,2.16,5.11,5.11,0,0,0,2.14.52,4.76,4.76,0,0,0,1.67-.28,10.15,10.15,0,0,0,2.93-1.8L8,7.48l-.07.68a2.5,2.5,0,0,0,4.27,1.77,2.84,2.84,0,0,0,.73-1.77L13,7.4l-4.91.66a2.17,2.17,0,0,1,0,.25L8,7.64a3.14,3.14,0,0,1,0,.75l.09-.67a4.06,4.06,0,0,1-.25.84L8.1,8a5.7,5.7,0,0,1-.78,1.27l.39-.5c-.18.23-.37.45-.56.67a2.71,2.71,0,0,0-.73,1.77,2.5,2.5,0,0,0,4.27,1.77l2.17-2.16L8.68,9.68l0,.1-.09-.66a1.62,1.62,0,0,1,0,.22l.09-.67a3.18,3.18,0,0,1-.1.33l.25-.59a13,13,0,0,1-1,1.47L6.83,11.41a2.51,2.51,0,0,0-.25,1.93,2.57,2.57,0,0,0,.89,1.3,2.48,2.48,0,0,0,3.29-.2,17.49,17.49,0,0,1,2.84-2.8l-.51.39L13.2,12a2.75,2.75,0,0,0,1.15-1.49,2.68,2.68,0,0,0-.13-1.63,2.49,2.49,0,0,0-3-1.45,5.57,5.57,0,0,1-.9.2L11,7.49a5.8,5.8,0,0,1-1.38,0l.67.09a5.9,5.9,0,0,1-1.44-.39l.59.25a5.91,5.91,0,0,1-1-.58A2.5,2.5,0,0,0,4.8,9.68,2.88,2.88,0,0,0,6,11.17a7.8,7.8,0,0,0,6.65,1L10.67,7.63a19.84,19.84,0,0,0-3.45,3.28l3.93,3,1.43-2.07a3.93,3.93,0,0,0,.92-3.52A2.5,2.5,0,0,0,9.32,7.24L7.15,9.4l3.54,3.54a11.38,11.38,0,0,0,1.68-2.34,5.8,5.8,0,0,0,.51-3.86,2.5,2.5,0,0,0-2.75-1.8,2.39,2.39,0,0,0-1.43.69A2.84,2.84,0,0,0,8,7.4l-.08.76h5L13,7.48a2.53,2.53,0,0,0-.34-1.26A2.58,2.58,0,0,0,10.12,5a2.78,2.78,0,0,0-1.43.69L8.39,6l.5-.39a6.66,6.66,0,0,1-1.41.88l.6-.25a4,4,0,0,1-.82.22l.66-.09a3,3,0,0,1-.6,0L8,6.41a3.45,3.45,0,0,1-.46-.12l.6.25L8,6.49v4.32A23.09,23.09,0,0,0,10.8,8.88,6.08,6.08,0,0,0,11.75,8a6.17,6.17,0,0,0,1.18-2L13,5.34a1.88,1.88,0,0,0-.22-1,2.4,2.4,0,0,0-1-1.2,2.55,2.55,0,0,0-3,.39A10,10,0,0,1,7.3,5l.5-.39A10.54,10.54,0,0,1,5.58,5.87l.59-.25a8.33,8.33,0,0,1-1,.36A2.5,2.5,0,1,0,6.51,10.8Z"/></g></g></svg>