<svg xmlns="http://www.w3.org/2000/svg" viewBox="0 0 42.17 45.94"><defs><style>.cls-1{fill:#34c4f3;}</style></defs><g id="Layer_2" data-name="Layer 2"><g id="Layer_1-2" data-name="Layer 1"><path class="cls-1" d="M1.14,41.54a33.91,33.91,0,0,0,9.49,4.31,2.53,2.53,0,0,0,3.16-2.41q.09-5.2-.32-10.39L9.71,35.21l4,2.53a17,17,0,0,0,4,2.26,3.77,3.77,0,0,0,4.34-1.57c.79-1.3.56-3,.5-4.46a91.4,91.4,0,0,0-2.81-19l-3.07,3.08c5.27,1.12,8.47,6.46,12.52,9.67,2.27,1.8,7,5.14,9,1.28a11.76,11.76,0,0,0,.78-2.8c.24-1.11.47-2.22.69-3.34q.59-3,1-6A143.34,143.34,0,0,0,42.17,2.41c.15-3.22-4.85-3.21-5,0C37,6.56,36.63,10.72,36,14.84q-.43,3.14-1,6.24c-.18,1-.37,1.91-.58,2.87-.1.47-.2.95-.31,1.42-.07.32-.15.64-.22.95-.2.58-.16.63.1.17l1.11-.65c.56-.16.17-.13-.24-.34S34,25,33.61,24.77a16.36,16.36,0,0,1-1.93-1.5c-1.41-1.24-2.7-2.61-4-3.93-2.71-2.7-5.74-5.27-9.57-6.08A2.53,2.53,0,0,0,15,16.33a83.7,83.7,0,0,1,2.43,14.32c.1,1.26.18,2.53.22,3.79a9.72,9.72,0,0,0,0,1.43c-.09.87.38.64,1.43-.69a3,3,0,0,1-.43-.24,20.2,20.2,0,0,0-3.23-2l-3.23-2a2.51,2.51,0,0,0-3.76,2.16q.4,5.19.32,10.39L12,41a29.3,29.3,0,0,1-8.29-3.81C1,35.44-1.53,39.77,1.14,41.54Z"/></g></g></svg>